<svg width="66" height="67" viewBox="0 0 66 67" fill="none" xmlns="http://www.w3.org/2000/svg">
<path d="M59.8438 24.8744V22.8119C59.8444 22.3847 59.7589 21.9618 59.5924 21.5684C59.4258 21.1751 59.1816 20.8193 58.8744 20.5225C58.564 20.2284 58.1978 19.9994 57.7976 19.8488C57.3974 19.6983 56.971 19.6293 56.5438 19.646C52.7391 19.7489 48.9474 20.135 45.2 20.801L43.8387 21.0691C43.5465 18.1751 42.2063 15.4879 40.0705 13.5134C37.9347 11.5389 35.1507 10.4133 32.2428 10.3487C29.3349 10.284 26.5036 11.2847 24.2822 13.1624C22.0608 15.04 20.6025 17.6651 20.1819 20.5431C20.1819 20.7288 20.1819 20.9041 20.1819 21.0794C15.9878 20.2448 11.7309 19.7653 7.45625 19.646C7.0282 19.6336 6.602 19.707 6.20279 19.862C5.80358 20.017 5.43945 20.2503 5.13188 20.5483C4.82431 20.8462 4.57952 21.2028 4.41195 21.5969C4.24439 21.9909 4.15745 22.4146 4.15625 22.8428V24.9053C2.99159 25.1431 1.94484 25.7759 1.19315 26.6967C0.441464 27.6175 0.0310075 28.7698 0.0312501 29.9585V58.8335C0.0312501 60.201 0.574496 61.5125 1.54148 62.4795C2.02028 62.9583 2.5887 63.3381 3.21429 63.5972C3.83987 63.8563 4.51037 63.9897 5.1875 63.9897H58.8125C60.18 63.9897 61.4915 63.4465 62.4585 62.4795C63.4255 61.5125 63.9688 60.201 63.9688 58.8335V29.9585C63.9762 28.7645 63.569 27.6049 62.8167 26.6777C62.0644 25.7505 61.0136 25.1132 59.8438 24.8744ZM22.2444 20.8319C22.5723 18.6885 23.5942 16.7118 25.1532 15.2049C26.7123 13.6979 28.7226 12.7439 30.8759 12.4891C31.2492 12.448 31.6245 12.4273 32 12.4272C34.423 12.4214 36.7613 13.3185 38.5588 14.9435C39.6407 15.9103 40.4958 17.1041 41.0632 18.4396C41.6306 19.7751 41.8961 21.2194 41.841 22.6693C41.7858 24.1193 41.4113 25.5392 40.7441 26.8277C40.0769 28.1162 39.1335 29.2416 37.9813 30.1235C37.1074 30.7713 36.3963 31.6136 35.9041 32.5837C35.4119 33.5538 35.1521 34.625 35.1453 35.7128C35.1426 36.1004 34.9875 36.4713 34.7134 36.7453C34.4394 37.0194 34.0685 37.1745 33.6809 37.1772H33.0312V29.9585C33.0317 29.7175 32.9478 29.484 32.7941 29.2985L29.0403 24.8022H34.6606L32.8147 26.6481C32.6457 26.8454 32.5575 27.0992 32.5675 27.3587C32.5775 27.6183 32.6851 27.8645 32.8688 28.0481C33.0524 28.2318 33.2986 28.3394 33.5582 28.3494C33.8177 28.3594 34.0715 28.2712 34.2687 28.1022L37.8781 24.4928C38.0195 24.3487 38.1154 24.1662 38.154 23.9681C38.1926 23.77 38.1722 23.5649 38.0953 23.3782C38.0185 23.1915 37.8885 23.0316 37.7216 22.9181C37.5547 22.8046 37.3581 22.7425 37.1562 22.7397H26.8438C26.6476 22.7394 26.4555 22.795 26.2898 22.9C26.1242 23.0051 25.9919 23.1551 25.9086 23.3327C25.8252 23.5102 25.7942 23.7078 25.8192 23.9024C25.8442 24.0969 25.9242 24.2803 26.0497 24.431L30.9688 30.3297V37.1772H30.3191C30.1245 37.1772 29.9319 37.1387 29.7523 37.064C29.5727 36.9892 29.4097 36.8797 29.2726 36.7416C29.1356 36.6036 29.0272 36.4398 28.9537 36.2597C28.8802 36.0796 28.843 35.8867 28.8444 35.6922C28.8324 34.6057 28.5693 33.5368 28.0755 32.5689C27.5817 31.601 26.8707 30.7605 25.9981 30.1131C24.5965 29.0459 23.5082 27.6208 22.8477 25.9876C22.1872 24.3544 21.9788 22.5735 22.2444 20.8319ZM6.21875 22.8428C6.22003 22.6898 6.25196 22.5387 6.31266 22.3982C6.37337 22.2578 6.4616 22.131 6.57216 22.0252C6.68272 21.9194 6.81336 21.8369 6.95635 21.7825C7.09935 21.7281 7.25179 21.7029 7.40469 21.7085C11.681 21.8273 15.9388 22.3172 20.1303 23.1728C20.2487 24.8505 20.725 26.4834 21.5272 27.9616C22.3295 29.4398 23.439 30.729 24.7812 31.7425C25.4083 32.1977 25.921 32.7924 26.2789 33.4796C26.6368 34.1668 26.8302 34.9278 26.8438 35.7025C26.8436 36.63 27.2078 37.5205 27.8578 38.1821C28.5078 38.8437 29.3917 39.2235 30.3191 39.2397H33.6809C34.1477 39.2384 34.6096 39.1449 35.0401 38.9647C35.4707 38.7846 35.8615 38.5212 36.19 38.1897C36.5186 37.8583 36.7786 37.4652 36.955 37.0331C37.1314 36.601 37.2208 36.1383 37.2181 35.6716C37.2348 34.9033 37.4299 34.1493 37.7878 33.4693C38.1457 32.7892 38.6568 32.2016 39.2806 31.7528C40.6164 30.7333 41.7195 29.4407 42.5161 27.9612C43.3128 26.4816 43.7848 24.8492 43.9006 23.1728L45.6125 22.8325C49.2407 22.1872 52.9116 21.8115 56.5953 21.7085C56.75 21.7005 56.9047 21.7258 57.0488 21.7828C57.1929 21.8397 57.3231 21.9269 57.4306 22.0385C57.5394 22.1443 57.6256 22.271 57.6841 22.411C57.7426 22.551 57.7721 22.7014 57.7709 22.8531V55.6366C57.7712 55.9287 57.6588 56.2097 57.4571 56.421C57.2554 56.6323 56.98 56.7577 56.6881 56.771C48.594 56.8792 40.5837 58.4261 33.0312 61.3394V43.3647H34.0625C34.336 43.3647 34.5983 43.2561 34.7917 43.0627C34.9851 42.8693 35.0938 42.607 35.0938 42.3335C35.0938 42.06 34.9851 41.7976 34.7917 41.6043C34.5983 41.4109 34.336 41.3022 34.0625 41.3022H29.9375C29.664 41.3022 29.4017 41.4109 29.2083 41.6043C29.0149 41.7976 28.9062 42.06 28.9062 42.3335C28.9062 42.607 29.0149 42.8693 29.2083 43.0627C29.4017 43.2561 29.664 43.3647 29.9375 43.3647H30.9688V61.3497C23.4182 58.4286 15.4071 56.8781 7.31188 56.771C7.01823 56.7603 6.74018 56.6361 6.53629 56.4245C6.33239 56.2129 6.21856 55.9304 6.21875 55.6366V22.8428ZM2.09375 58.8335V29.9585C2.09554 29.3202 2.29472 28.6981 2.66397 28.1774C3.03322 27.6568 3.55446 27.2631 4.15625 27.0503V55.6366C4.16095 56.4653 4.48526 57.2603 5.0616 57.8559C5.63793 58.4514 6.42185 58.8016 7.25 58.8335C13.7243 58.987 20.147 60.028 26.3384 61.9272H5.1875C4.36699 61.9272 3.58008 61.6013 2.99989 61.0211C2.4197 60.4409 2.09375 59.654 2.09375 58.8335ZM61.9062 58.8335C61.9062 59.654 61.5803 60.4409 61.0001 61.0211C60.4199 61.6013 59.633 61.9272 58.8125 61.9272H37.6512C43.846 60.0271 50.2722 58.9861 56.75 58.8335C57.5781 58.8016 58.3621 58.4514 58.9384 57.8559C59.5147 57.2603 59.8391 56.4653 59.8438 55.6366V27.0194C60.4505 27.2339 60.9753 27.6323 61.345 28.1591C61.7147 28.6859 61.9109 29.3149 61.9062 29.9585V58.8335Z" fill="#3E6C5F"/>
<path d="M10.2686 27.8934C11.6298 27.9862 13.0014 28.1099 14.342 28.2749H14.4658C14.7393 28.2913 15.0081 28.1984 15.2131 28.0166C15.4181 27.8348 15.5425 27.579 15.5589 27.3055C15.5753 27.032 15.4824 26.7632 15.3006 26.5582C15.1188 26.3532 14.863 26.2288 14.5895 26.2124C13.218 26.0474 11.8051 25.9133 10.413 25.8205C10.1395 25.8028 9.87009 25.8944 9.66412 26.0752C9.45815 26.256 9.33246 26.5113 9.31468 26.7848C9.2969 27.0583 9.3885 27.3276 9.56933 27.5336C9.75015 27.7396 10.0054 27.8653 10.2789 27.883L10.2686 27.8934Z" fill="#3E6C5F"/>
<path d="M10.2686 32.1523C12.7844 32.3164 15.2901 32.6089 17.7761 33.0288H17.9514C18.0868 33.0403 18.2232 33.0251 18.3527 32.9839C18.4822 32.9427 18.6024 32.8764 18.7063 32.7888C18.8102 32.7011 18.8958 32.5939 18.9583 32.4732C19.0207 32.3525 19.0588 32.2207 19.0703 32.0852C19.0818 31.9498 19.0665 31.8134 19.0253 31.6839C18.9842 31.5544 18.9179 31.4342 18.8302 31.3303C18.7426 31.2264 18.6354 31.1408 18.5147 31.0784C18.394 31.0159 18.2621 30.9778 18.1267 30.9663C15.5725 30.533 12.998 30.2301 10.413 30.0588C10.1395 30.041 9.87009 30.1326 9.66412 30.3135C9.45815 30.4943 9.33246 30.7495 9.31468 31.023C9.2969 31.2965 9.3885 31.5659 9.56933 31.7719C9.75015 31.9778 10.0054 32.1035 10.2789 32.1213L10.2686 32.1523Z" fill="#3E6C5F"/>
<path d="M9.31451 38.2762C9.29753 38.5481 9.38886 38.8157 9.56856 39.0206C9.74826 39.2254 10.0017 39.3507 10.2736 39.3693C15.7893 39.7072 21.2453 40.7008 26.5261 42.329C26.7873 42.411 27.0704 42.386 27.3131 42.2593C27.5558 42.1326 27.7382 41.9147 27.8203 41.6535C27.9023 41.3923 27.8773 41.1092 27.7506 40.8665C27.6239 40.6238 27.406 40.4413 27.1448 40.3593C21.7082 38.6677 16.0897 37.6292 10.4076 37.2655C10.2688 37.2572 10.1297 37.277 9.99876 37.3237C9.86779 37.3705 9.74763 37.4433 9.64552 37.5377C9.5434 37.6321 9.46143 37.7462 9.40455 37.8731C9.34766 38 9.31704 38.1371 9.31451 38.2762Z" fill="#3E6C5F"/>
<path d="M27.1501 45.426C21.7135 43.7346 16.095 42.696 10.413 42.3323C10.2775 42.3235 10.1417 42.3414 10.0132 42.3851C9.88473 42.4288 9.76611 42.4974 9.66412 42.5869C9.45815 42.7677 9.33246 43.023 9.31468 43.2965C9.2969 43.57 9.3885 43.8393 9.56933 44.0453C9.75015 44.2513 10.0054 44.377 10.2789 44.3948C15.7951 44.7361 21.251 45.7332 26.5314 47.3648C26.7733 47.4003 27.0199 47.3487 27.2272 47.2192C27.4346 47.0898 27.5893 46.8909 27.6636 46.658C27.7379 46.4251 27.7271 46.1734 27.633 45.9477C27.539 45.7221 27.3679 45.5372 27.1501 45.426Z" fill="#3E6C5F"/>
<path d="M27.1501 50.5823C21.7136 48.8907 16.095 47.8522 10.413 47.4885C10.1395 47.4707 9.87009 47.5623 9.66412 47.7432C9.45815 47.924 9.33246 48.1792 9.31468 48.4527C9.2969 48.7262 9.3885 48.9956 9.56933 49.2016C9.75015 49.4075 10.0054 49.5332 10.2789 49.551C15.7966 49.9333 21.2492 50.9719 26.5211 52.6448C26.7946 52.7282 27.09 52.6995 27.3424 52.5651C27.5948 52.4307 27.7834 52.2015 27.8669 51.928C27.9503 51.6545 27.9216 51.3591 27.7872 51.1067C27.6528 50.8543 27.4237 50.6657 27.1501 50.5823Z" fill="#3E6C5F"/>
<path d="M37.1545 42.3921C37.2571 42.4077 37.3613 42.4077 37.4639 42.3921C42.7443 40.7604 48.2002 39.7634 53.7164 39.4221C53.9899 39.4043 54.2451 39.2786 54.426 39.0727C54.6068 38.8667 54.6984 38.5973 54.6806 38.3238C54.6628 38.0503 54.5371 37.7951 54.3312 37.6142C54.1252 37.4334 53.8558 37.3418 53.5823 37.3596C47.9003 37.7233 42.2817 38.7618 36.8451 40.4534C36.7097 40.4737 36.5796 40.5205 36.4623 40.591C36.3449 40.6616 36.2426 40.7547 36.1612 40.8648C35.9969 41.0872 35.9275 41.3658 35.9686 41.6393C36.0096 41.9128 36.1576 42.1588 36.38 42.3232C36.6024 42.4876 36.881 42.5569 37.1545 42.5158V42.3921Z" fill="#3E6C5F"/>
<path d="M37.1545 47.4163C37.2571 47.4319 37.3613 47.4319 37.4639 47.4163C42.7422 45.7672 48.1981 44.7529 53.7164 44.3948C53.8518 44.386 53.9842 44.3506 54.1059 44.2906C54.2277 44.2306 54.3364 44.1473 54.426 44.0453C54.5155 43.9433 54.5841 43.8247 54.6278 43.6962C54.6715 43.5677 54.6894 43.4319 54.6806 43.2965C54.6718 43.161 54.6364 43.0287 54.5765 42.9069C54.5165 42.7852 54.4331 42.6764 54.3312 42.5869C54.2292 42.4974 54.1106 42.4288 53.9821 42.3851C53.8536 42.3414 53.7178 42.3235 53.5823 42.3323C47.9003 42.696 42.2817 43.7346 36.8451 45.426C36.5716 45.467 36.3256 45.615 36.1612 45.8374C35.9969 46.0598 35.9275 46.3384 35.9686 46.6119C36.0096 46.8854 36.1576 47.1314 36.38 47.2958C36.6024 47.4602 36.881 47.5295 37.1545 47.4885V47.4163Z" fill="#3E6C5F"/>
<path d="M37.1545 52.6421C37.2571 52.6577 37.3613 52.6577 37.4639 52.6421C42.7443 51.0104 48.2002 50.0134 53.7164 49.6721C53.9899 49.6543 54.2451 49.5286 54.426 49.3227C54.6068 49.1167 54.6984 48.8473 54.6806 48.5738C54.6628 48.3003 54.5371 48.0451 54.3312 47.8642C54.1252 47.6834 53.8558 47.5918 53.5823 47.6096C47.9053 47.933 42.2868 48.93 36.8451 50.5796C36.5716 50.6206 36.3256 50.7686 36.1612 50.991C35.9969 51.2134 35.9275 51.492 35.9686 51.7655C36.0096 52.039 36.1576 52.285 36.38 52.4494C36.6024 52.6138 36.881 52.6831 37.1545 52.6421Z" fill="#3E6C5F"/>
<path d="M32 7.26758C32.2735 7.26758 32.5358 7.15893 32.7292 6.96553C32.9226 6.77213 33.0312 6.50983 33.0312 6.23633V2.11133C33.0312 1.83782 32.9226 1.57552 32.7292 1.38212C32.5358 1.18873 32.2735 1.08008 32 1.08008C31.7265 1.08008 31.4642 1.18873 31.2708 1.38212C31.0774 1.57552 30.9688 1.83782 30.9688 2.11133V6.23633C30.9688 6.50983 31.0774 6.77213 31.2708 6.96553C31.4642 7.15893 31.7265 7.26758 32 7.26758Z" fill="#3E6C5F"/>
<path d="M39.2912 10.2887C39.4269 10.2895 39.5614 10.2634 39.6871 10.2121C39.8127 10.1608 39.927 10.0852 40.0233 9.98961L42.9418 7.07117C43.1107 6.87389 43.199 6.62013 43.189 6.36059C43.179 6.10105 43.0714 5.85485 42.8877 5.67119C42.704 5.48753 42.4578 5.37993 42.1983 5.36991C41.9388 5.35988 41.685 5.44817 41.4877 5.61711L38.559 8.52524C38.4135 8.66948 38.3143 8.85376 38.2741 9.0546C38.2338 9.25543 38.2542 9.46371 38.3327 9.65289C38.4113 9.84207 38.5444 10.0036 38.7151 10.1168C38.8858 10.23 39.0863 10.2899 39.2912 10.2887Z" fill="#3E6C5F"/>
<path d="M23.9764 9.99211C24.1737 10.1611 24.4275 10.2493 24.687 10.2393C24.9465 10.2293 25.1927 10.1217 25.3764 9.93804C25.5601 9.75438 25.6676 9.50818 25.6777 9.24864C25.6877 8.98909 25.5994 8.73533 25.4305 8.53805L22.5223 5.6093C22.3251 5.44035 22.0713 5.35207 21.8118 5.3621C21.5522 5.37212 21.306 5.47971 21.1224 5.66337C20.9387 5.84703 20.8311 6.09323 20.8211 6.35278C20.8111 6.61232 20.8993 6.86608 21.0683 7.06336L23.9764 9.99211Z" fill="#3E6C5F"/>
</svg>
