<svg width="64" height="76" viewBox="0 0 64 76" fill="none" xmlns="http://www.w3.org/2000/svg">
<path d="M47.0097 30.2545C50.5594 29.7004 54.2761 29.4567 58.6497 29.6032L47.0097 30.2545ZM47.0097 30.2545C48.6644 27.3685 49.4843 24.0121 49.2654 20.5301C48.7258 11.9472 41.8508 5.01203 33.2729 4.39883L33.2728 4.39882C22.9295 3.66381 14.7007 11.896 14.7007 21.647C14.7007 24.704 15.5225 27.6577 16.9994 30.2366C14.0318 29.7601 9.27923 29.451 5.34301 29.6033C4.89839 29.6204 4.54773 29.9857 4.54773 30.4302V34.9381H1.12413C0.666793 34.9381 0.296484 35.3082 0.296484 35.7657V74.3726C0.296484 74.8299 0.666618 75.2002 1.12413 75.2002H62.8771C63.3344 75.2002 63.7047 74.8301 63.7047 74.3726V35.7656C63.7047 35.3083 63.3346 34.938 62.8771 34.938H59.4507V30.43C59.4507 29.9831 59.0965 29.6177 58.6498 29.6032L47.0097 30.2545ZM5.39772 69.1036L5.39959 69.1035C13.4197 68.8636 20.9014 70.5389 28.1235 73.5449H1.95177V36.5932H4.54773V68.2759C4.54773 68.7347 4.91901 69.1089 5.39772 69.1036ZM28.3175 46.1653L28.3175 46.1653L27.3838 45.2768H36.6175L35.6851 46.1652C35.4507 46.3878 35.1449 46.51 34.8232 46.51H29.1787C28.8569 46.51 28.5511 46.3878 28.3175 46.1653ZM59.4507 68.2761V36.5932H62.0495V73.5449H35.8573C43.4366 70.3843 51.0684 68.8848 58.5995 69.1035L58.6013 69.1036C59.0907 69.1088 59.4507 68.7244 59.4507 68.2761ZM57.7954 31.2357V67.4317C49.4971 67.3448 41.1182 69.2296 32.8263 73.067V48.1653H34.8232C35.5707 48.1653 36.2819 47.8811 36.8254 47.3647L36.8255 47.3646L39.0183 45.277H39.2613C40.2609 45.277 41.0737 44.464 41.0737 43.4646V39.541C41.0737 38.7316 40.5387 38.0508 39.8067 37.8185C39.9294 37.3161 40.2422 36.8726 40.6992 36.606C42.7079 35.435 44.4091 33.9061 45.7612 32.135C49.7864 31.394 53.7348 31.148 57.7954 31.2357ZM39.8654 35.1763L39.9157 35.2627L39.8654 35.1763C38.9249 35.7249 38.2885 36.672 38.1244 37.7278H25.8734C25.7124 36.6698 25.0826 35.7245 24.1498 35.1828C19.3426 32.3881 16.356 27.2013 16.356 21.6471C16.356 12.8431 23.7849 5.38502 33.1549 6.04944C40.9096 6.60429 47.1256 12.8747 47.6135 20.6338C47.9885 26.5995 45.0196 32.1713 39.8654 35.1763ZM23.3183 36.6138L23.3183 36.6139C23.7662 36.8738 24.0731 37.3149 24.1924 37.819C23.4615 38.052 22.9276 38.7321 22.9276 39.5408V43.4645C22.9276 44.464 23.7405 45.2768 24.7399 45.2768H24.9829L27.1763 47.3645L27.2453 47.2921L27.1763 47.3645C27.7186 47.8803 28.4296 48.1651 29.1787 48.1651H31.1712V73.0666C23.3303 69.4221 14.8875 67.3209 6.20287 67.4313V31.2345C9.65313 31.1462 14.2085 31.3872 18.2475 32.1264C19.6079 33.9163 21.3201 35.4523 23.3183 36.6138ZM24.7399 43.6217C24.6531 43.6217 24.5827 43.5514 24.5827 43.4645V39.5408C24.5827 39.4536 24.6534 39.3828 24.7399 39.3828H39.2614C39.3479 39.3828 39.4187 39.4535 39.4187 39.5408V43.4645C39.4187 43.5513 39.3484 43.6217 39.2614 43.6217H39.2415H39.2215H39.2014H39.1812H39.1609H39.1405H39.1199H39.0993H39.0786H39.0578H39.0369H39.0159H38.9949H38.9737H38.9524H38.931H38.9095H38.888H38.8663H38.8446H38.8227H38.8008H38.7787H38.7566H38.7344H38.7121H38.6897H38.6672H38.6446H38.622H38.5992H38.5764H38.5534H38.5304H38.5073H38.4841H38.4608H38.4375H38.414H38.3905H38.3669H38.3432H38.3194H38.2955H38.2715H38.2475H38.2234H38.1992H38.1749H38.1505H38.1261H38.1015H38.0769H38.0522H38.0275H38.0026H37.9777H37.9527H37.9276H37.9024H37.8772H37.8519H37.8265H37.801H37.7755H37.7499H37.7242H37.6984H37.6725H37.6466H37.6206H37.5946H37.5685H37.5422H37.516H37.4896H37.4632H37.4367H37.4102H37.3835H37.3568H37.3301H37.3032H37.2763H37.2494H37.2223H37.1952H37.168H37.1408H37.1135H37.0861H37.0587H37.0312H37.0037H36.976H36.9483H36.9206H36.8928H36.8649H36.837H36.809H36.7809H36.7528H36.7246H36.6964H36.6681H36.6397H36.6113H36.5828H36.5543H36.5257H36.4971H36.4684H36.4396H36.4108H36.3819H36.353H36.324H36.295H36.2659H36.2368H36.2076H36.1783H36.149H36.1197H36.0903H36.0608H36.0313H36.0018H35.9722H35.9425H35.9128H35.8831H35.8533H35.8235H35.7936H35.7636H35.7336H35.7036H35.6735H35.6434H35.6133H35.583H35.5528H35.5225H35.4921H35.4618H35.4313H35.4009H35.3704H35.3398H35.3092H35.2786H35.2479H35.2172H35.1864H35.1556H35.1248H35.0939H35.063H35.0321H35.0011H34.9701H34.939H34.9079H34.8768H34.8456H34.8144H34.7832H34.752H34.7207H34.6893H34.658H34.6266H34.5951H34.5637H34.5322H34.5007H34.4691H34.4375H34.4059H34.3743H34.3426H34.3109H34.2792H34.2474H34.2157H34.1839H34.152H34.1202H34.0883H34.0564H34.0244H33.9925H33.9605H33.9285H33.8965H33.8644H33.8323H33.8002H33.7681H33.736H33.7038H33.6716H33.6394H33.6072H33.575H33.5427H33.5105H33.4782H33.4458H33.4135H33.3812H33.3488H33.3164H33.284H33.2516H33.2192H33.1868H33.1543H33.1218H33.0894H33.0569H33.0244H32.9919H32.9593H32.9268H32.8942H32.8617H32.8291H32.7965H32.7639H32.7313H32.6987H32.6661H32.6335H32.6009H32.5682H32.5356H32.5029H32.4703H32.4376H32.405H32.3723H32.3396H32.3069H32.2743H32.2416H32.2089H32.1762H32.1435H32.1108H32.0781H32.0454H32.0127H31.98H31.9473H31.9146H31.882H31.8493H31.8166H31.7839H31.7512H31.7185H31.6859H31.6532H31.6205H31.5879H31.5552H31.5226H31.4899H31.4573H31.4247H31.392H31.3594H31.3268H31.2942H31.2616H31.2291H31.1965H31.1639H31.1314H31.0988H31.0663H31.0338H31.0013H30.9688H30.9363H30.9039H30.8714H30.839H30.8066H30.7742H30.7418H30.7094H30.677H30.6447H30.6124H30.5801H30.5478H30.5155H30.4832H30.451H30.4188H30.3866H30.3544H30.3223H30.2901H30.258H30.2259H30.1938H30.1618H30.1298H30.0978H30.0658H30.0338H30.0019H29.97H29.9381H29.9063H29.8744H29.8426H29.8109H29.7791H29.7474H29.7157H29.6841H29.6524H29.6208H29.5892H29.5577H29.5262H29.4947H29.4632H29.4318H29.4004H29.3691H29.3377H29.3064H29.2752H29.244H29.2128H29.1816H29.1505H29.1194H29.0884H29.0574H29.0264H28.9954H28.9645H28.9337H28.9028H28.8721H28.8413H28.8106H28.7799H28.7493H28.7187H28.6882H28.6577H28.6272H28.5968H28.5664H28.5361H28.5058H28.4755H28.4453H28.4152H28.3851H28.355H28.325H28.295H28.2651H28.2352H28.2054H28.1756H28.1458H28.1161H28.0865H28.0569H28.0274H27.9979H27.9684H27.939H27.9097H27.8804H27.8512H27.822H27.7929H27.7638H27.7348H27.7058H27.6769H27.648H27.6192H27.5905H27.5618H27.5332H27.5046H27.4761H27.4476H27.4192H27.3909H27.3626H27.3343H27.3062H27.2781H27.25H27.222H27.1941H27.1662H27.1384H27.1107H27.083H27.0554H27.0279H27.0004H26.973H26.9456H26.9183H26.8911H26.8639H26.8368H26.8098H26.7829H26.756H26.7291H26.7024H26.6757H26.6491H26.6225H26.5961H26.5697H26.5433H26.5171H26.4909H26.4647H26.4387H26.4127H26.3868H26.361H26.3352H26.3096H26.284H26.2584H26.233H26.2076H26.1823H26.1571H26.1319H26.1068H26.0818H26.0569H26.0321H26.0073H25.9827H25.9581H25.9336H25.9091H25.8848H25.8605H25.8363H25.8122H25.7882H25.7642H25.7404H25.7166H25.6929H25.6693H25.6458H25.6223H25.599H25.5757H25.5525H25.5294H25.5064H25.4835H25.4607H25.438H25.4153H25.3928H25.3703H25.3479H25.3256H25.3034H25.2813H25.2593H25.2374H25.2155H25.1938H25.1722H25.1506H25.1292H25.1078H25.0865H25.0654H25.0443H25.0233H25.0024H24.9816H24.961H24.9404H24.9199H24.8995H24.8792H24.859H24.8389H24.8189H24.799H24.7792H24.7595H24.7399Z" fill="#8A1538" stroke="#8A1538" stroke-width="0.2"/>
<path d="M9.93095 49.6072L9.93095 49.6072C9.48611 49.6338 9.08126 49.2918 9.05211 48.8345L9.93095 49.6072ZM9.93095 49.6072L9.93149 49.6071M9.93095 49.6072L9.93149 49.6071M9.93149 49.6071C15.6341 49.2345 21.4342 50.3605 27.1585 52.9451C27.5667 53.131 28.0621 52.9545 28.253 52.5314C28.4413 52.1151 28.2561 51.6252 27.8392 51.437C21.8705 48.7415 15.8097 47.5725 9.82477 47.9552L9.82461 47.9552M9.93149 49.6071L9.82461 47.9552M9.82461 47.9552C9.36884 47.9851 9.02292 48.3786 9.05211 48.8344L9.82461 47.9552Z" fill="#8A1538" stroke="#8A1538" stroke-width="0.2"/>
<path d="M9.82461 53.6361L9.8247 53.6361C15.8082 53.2492 21.8705 54.4224 27.8392 57.1186C28.2561 57.3069 28.4413 57.7967 28.253 58.213C28.0621 58.636 27.5668 58.8126 27.1586 58.6267M9.82461 53.6361L9.05211 54.5154C9.08129 54.9732 9.46832 55.305 9.92863 55.2881L9.92863 55.2882L9.93139 55.288C15.6405 54.9204 21.4359 56.0429 27.1586 58.6267M9.82461 53.6361C9.36884 53.666 9.02292 54.0594 9.05211 54.5153L9.82461 53.6361ZM27.1586 58.6267C27.1585 58.6267 27.1584 58.6267 27.1584 58.6266L27.1998 58.5356L27.1587 58.6268C27.1587 58.6268 27.1586 58.6267 27.1586 58.6267Z" fill="#8A1538" stroke="#8A1538" stroke-width="0.2"/>
<path d="M9.82461 59.3236L9.8247 59.3236C15.8082 58.9367 21.8705 60.1099 27.8392 62.8062C28.2561 62.9944 28.4413 63.4842 28.253 63.9005C28.0621 64.3235 27.5668 64.5001 27.1586 64.3142M9.82461 59.3236L9.05211 60.2029C9.08121 60.6594 9.46216 60.9972 9.92958 60.9756L9.92958 60.9756L9.9314 60.9755C15.6405 60.6072 21.4359 61.7297 27.1586 64.3142M9.82461 59.3236C9.36884 59.3535 9.02292 59.7469 9.05211 60.2028L9.82461 59.3236ZM27.1586 64.3142C27.1585 64.3142 27.1584 64.3142 27.1584 64.3141L27.1998 64.2231L27.1587 64.3143C27.1587 64.3143 27.1586 64.3143 27.1586 64.3142Z" fill="#8A1538" stroke="#8A1538" stroke-width="0.2"/>
<path d="M35.747 52.5315C35.9385 52.9559 36.4347 53.1308 36.8417 52.9452L36.8002 52.8542L36.8414 52.9454C42.5657 50.3607 48.3631 49.2362 54.0686 49.6073L54.0695 49.6074C54.5183 49.6323 54.9188 49.292 54.9479 48.8346C54.977 48.3788 54.6312 47.9853 54.1754 47.9554L54.1753 47.9554C48.1918 47.5721 42.1302 48.741 36.1609 51.4372C35.744 51.6254 35.5588 52.1152 35.747 52.5315ZM35.747 52.5315L35.8382 52.4904L35.7471 52.5316C35.7471 52.5316 35.747 52.5315 35.747 52.5315Z" fill="#8A1538" stroke="#8A1538" stroke-width="0.2"/>
<path d="M54.1753 53.6361L54.1754 53.6361C54.6312 53.666 54.9771 54.0595 54.9479 54.5154M54.1753 53.6361L35.8382 58.1718L35.747 58.2129C35.9385 58.6373 36.4347 58.8122 36.8417 58.6266L36.8002 58.5356L36.8414 58.6268C42.5649 56.0429 48.3588 54.9204 54.0686 55.288L54.0686 55.2881L54.0718 55.2882C54.5361 55.3033 54.9187 54.9732 54.9479 54.5154M54.1753 53.6361C48.1854 53.2492 42.1294 54.4224 36.1609 57.1186L54.1753 53.6361ZM54.9479 54.5154L54.8481 54.509L54.9479 54.5153C54.9479 54.5153 54.9479 54.5153 54.9479 54.5154Z" fill="#8A1538" stroke="#8A1538" stroke-width="0.2"/>
<path d="M54.1753 59.3236L54.1754 59.3236C54.6312 59.3535 54.9771 59.7471 54.9479 60.2028C54.9479 60.2028 54.9479 60.2028 54.9479 60.2029L54.8481 60.1965C54.8226 60.5972 54.4886 60.8977 54.0751 60.8757L54.1753 59.3236ZM54.1753 59.3236C48.1854 58.9367 42.1294 60.1099 36.1609 62.8061C35.744 62.9943 35.5588 63.4841 35.747 63.9004C35.747 63.9005 35.7471 63.9005 35.7471 63.9005L35.8382 63.8593L54.1753 59.3236Z" fill="#8A1538" stroke="#8A1538" stroke-width="0.2"/>
<path d="M44.7014 18.2423L44.7014 18.2424C44.6991 18.8112 44.3324 19.3073 43.7891 19.4759C43.7891 19.4759 43.7891 19.4759 43.7891 19.4759L42.5214 19.8696V25.2273C43.3841 25.5611 44.0023 26.393 44.0023 27.3755C44.0023 27.8912 43.804 28.7639 43.4252 29.5087C43.0497 30.247 42.4724 30.9046 41.694 30.9046C40.8589 30.9046 40.2818 30.2025 39.9199 29.4429C39.5551 28.6772 39.3849 27.8053 39.3849 27.3755C39.3849 26.3938 40.0033 25.5626 40.8665 25.2282V20.3838L39.8422 20.7019V23.5697C39.8422 24.4181 39.342 25.2051 38.5692 25.5782C34.1329 27.7215 29.6342 27.5694 25.2421 25.5736L44.7014 18.2423ZM44.7014 18.2423C44.703 17.6736 44.3393 17.175 43.7974 17.0034L32.8322 13.5196L32.8322 13.5196M44.7014 18.2423L32.8322 13.5196M32.8322 13.5196C32.1202 13.2937 31.3695 13.2973 30.6587 13.5327C30.6587 13.5327 30.6587 13.5327 30.6587 13.5327L20.1871 16.9995C19.6507 17.1765 19.2931 17.6757 19.2985 18.2407M32.8322 13.5196L20.2094 19.4665M20.2094 19.4665L20.2094 19.4665C19.6698 19.2986 19.3032 18.8058 19.2985 18.2407M20.2094 19.4665L23.922 20.6197V23.544C23.922 24.4145 24.4407 25.2108 25.2419 25.5735L20.2094 19.4665ZM19.2985 18.2407C19.2985 18.2406 19.2985 18.2406 19.2985 18.2406L19.3985 18.2398L19.2985 18.2407C19.2985 18.2407 19.2985 18.2407 19.2985 18.2407ZM21.7715 18.2183L31.1795 15.104L31.1797 15.1039C31.5544 14.9791 31.952 14.9771 32.3314 15.0972L21.7715 18.2183ZM21.7715 18.2183L31.461 21.2282C31.8225 21.3402 32.2055 21.3402 32.5685 21.2282L21.7715 18.2183ZM37.8498 24.0878L37.8497 24.0878C33.9765 25.9585 30.0806 25.9534 25.9257 24.0662L25.9256 24.0662C25.712 23.9692 25.5772 23.7634 25.5772 23.544V21.1338L30.9705 22.809C31.6478 23.0197 32.3736 23.0215 33.0591 22.809L33.0592 22.809L38.1869 21.2161V23.5696C38.1869 23.787 38.0601 23.9863 37.8498 24.0878ZM41.696 26.7194H41.6961C42.0545 26.7192 42.3471 27.0128 42.3471 27.3754C42.3471 27.6673 42.2373 28.0796 42.087 28.4541C42.0125 28.6399 41.9294 28.8129 41.8477 28.9533C41.7919 29.0492 41.739 29.1259 41.6924 29.1807C41.6462 29.1264 41.5937 29.0501 41.5382 28.9546C41.4569 28.8145 41.374 28.6416 41.2996 28.4558C41.1497 28.0814 41.04 27.6685 41.04 27.3754C41.04 27.0135 41.3342 26.7194 41.696 26.7194ZM32.3315 15.0972L42.206 18.2345L41.6145 18.4183L31.9743 17.3382L31.9743 17.3382L31.9725 17.3381C31.5187 17.2954 31.1114 17.6133 31.0594 18.0686L31.0594 18.0687C31.0084 18.523 31.3358 18.9327 31.7899 18.9837L31.7899 18.9837L37.6725 19.6427L32.5687 21.2282L32.3315 15.0972Z" fill="#8A1538" stroke="#8A1538" stroke-width="0.2"/>
<path d="M45.7994 4.83283V1.61827C45.7994 1.16093 45.4293 0.790625 44.9718 0.790625C44.5143 0.790625 44.1441 1.16077 44.1441 1.61827V4.83283C44.1441 5.29016 44.5143 5.66047 44.9718 5.66047C45.4293 5.66047 45.7994 5.29016 45.7994 4.83283Z" fill="#8A1538" stroke="#8A1538" stroke-width="0.2"/>
<path d="M50.2663 3.47057L47.994 5.74283C47.6707 6.06613 47.6707 6.58992 47.9941 6.91309C48.3174 7.23637 48.8411 7.23639 49.1643 6.91306L51.4366 4.64079C51.7599 4.31749 51.7599 3.79371 51.4366 3.47053C51.1133 3.14743 50.5895 3.1472 50.2663 3.47057Z" fill="#8A1538" stroke="#8A1538" stroke-width="0.2"/>
<path d="M49.2457 9.93077C49.2457 10.3881 49.6158 10.7584 50.0733 10.7584H53.2879C53.7452 10.7584 54.1155 10.3883 54.1155 9.93077C54.1155 9.47343 53.7454 9.10312 53.2879 9.10312H50.0733C49.616 9.10312 49.2457 9.47342 49.2457 9.93077Z" fill="#8A1538" stroke="#8A1538" stroke-width="0.2"/>
<path d="M19.8562 4.83283V1.61827C19.8562 1.16093 19.486 0.790625 19.0285 0.790625C18.571 0.790625 18.2009 1.16077 18.2009 1.61827V4.83283C18.2009 5.10105 18.3032 5.30939 18.4621 5.44957C18.6191 5.58807 18.8255 5.65503 19.0285 5.65496C19.2316 5.65489 19.4379 5.58778 19.5949 5.44927C19.7538 5.30908 19.8562 5.10083 19.8562 4.83283Z" fill="#8A1538" stroke="#8A1538" stroke-width="0.2"/>
<path d="M14.8373 6.91315L14.8373 6.91314L12.5643 4.64087C12.5643 4.64087 12.5643 4.64086 12.5643 4.64086C12.241 4.31769 12.241 3.79393 12.5643 3.47063L14.8373 6.91315ZM14.8373 6.91315C15.1606 7.23628 15.6844 7.2363 16.0076 6.91313C16.3309 6.58983 16.3309 6.06605 16.0076 5.74288M14.8373 6.91315L16.0076 5.74288M16.0076 5.74288C16.0075 5.74288 16.0075 5.74287 16.0075 5.74287M16.0076 5.74288L16.0075 5.74287M16.0075 5.74287L13.7345 3.47061L16.0075 5.74287ZM13.7345 3.4706C13.4112 3.14731 12.8875 3.14728 12.5643 3.47061L13.7345 3.4706Z" fill="#8A1538" stroke="#8A1538" stroke-width="0.2"/>
<path d="M9.88633 9.93077C9.88633 10.3881 10.2565 10.7584 10.714 10.7584H13.9278C14.3851 10.7584 14.7554 10.3883 14.7554 9.93077C14.7554 9.47343 14.3853 9.10312 13.9278 9.10312H10.714C10.2566 9.10312 9.88633 9.47342 9.88633 9.93077Z" fill="#8A1538" stroke="#8A1538" stroke-width="0.2"/>
</svg>
