<svg width="22" height="23" viewBox="0 0 22 23" fill="none" xmlns="http://www.w3.org/2000/svg">
<path d="M11.8715 5.78726C13.0713 5.98836 14.1613 6.55508 15.0315 7.42344C15.9016 8.29181 16.4649 9.37955 16.671 10.577M12.0547 1.86133C14.1888 2.22239 16.1352 3.23243 17.6831 4.77263C19.2311 6.31741 20.2386 8.25981 20.6004 10.3896M18.9333 18.863C18.9333 18.863 17.7747 20.001 17.4907 20.3346C17.0282 20.8282 16.4832 21.0613 15.7688 21.0613C15.7001 21.0613 15.6268 21.0613 15.5581 21.0568C14.1979 20.9699 12.9339 20.4398 11.9859 19.9873C9.39383 18.735 7.11773 16.9572 5.22631 14.704C3.66463 12.8256 2.62046 11.0888 1.92893 9.22414C1.50302 8.08613 1.34731 7.19948 1.416 6.36311C1.4618 5.82838 1.66789 5.38506 2.048 5.00572L3.60968 3.44723C3.83408 3.237 4.07223 3.12274 4.30579 3.12274C4.59431 3.12274 4.82788 3.29641 4.97443 3.44266C4.97901 3.44723 4.98359 3.4518 4.98817 3.45637C5.26753 3.71688 5.53315 3.98653 5.81251 4.27447C5.95448 4.42072 6.10103 4.56697 6.24758 4.71779L7.49784 5.96549C7.98329 6.44995 7.98329 6.89784 7.49784 7.3823C7.36503 7.51484 7.2368 7.64737 7.10399 7.77534C6.71929 8.16839 7.02149 7.86681 6.62306 8.2233C6.6139 8.23244 6.60474 8.23701 6.60016 8.24615C6.2063 8.6392 6.27958 9.02311 6.36201 9.28362C6.36659 9.29733 6.37117 9.31104 6.37575 9.32475C6.70091 10.1108 7.15888 10.8512 7.855 11.7333L7.85958 11.7379C9.12357 13.2918 10.4563 14.5029 11.9263 15.4307C12.1141 15.5496 12.3065 15.6455 12.4896 15.7369C12.6545 15.8192 12.8102 15.8969 12.943 15.9792C12.9614 15.9883 12.9797 16.002 12.998 16.0112C13.1537 16.0889 13.3003 16.1254 13.4514 16.1254C13.8315 16.1254 14.0696 15.8878 14.1475 15.8101L15.0452 14.9142C15.2009 14.7588 15.4482 14.5714 15.7367 14.5714C16.0207 14.5714 16.2542 14.7497 16.3962 14.9051C16.4008 14.9096 16.4008 14.9096 16.4054 14.9142L18.9288 17.4325C19.4005 17.8986 18.9333 18.863 18.9333 18.863Z" stroke="#EAE0D6" stroke-width="2" stroke-linecap="round" stroke-linejoin="round"/>
</svg>
