<svg width="66" height="67" viewBox="0 0 66 67" fill="none" xmlns="http://www.w3.org/2000/svg">
<path d="M58.0391 16.7146C57.9535 16.7038 57.8668 16.7038 57.7812 16.7146H54.6875C54.5708 16.7192 54.4557 16.7436 54.3472 16.7868C53.6876 15.5148 52.8037 14.3724 51.7381 13.4146C50.4922 12.2879 49.0186 11.4424 47.4173 10.9353C45.8159 10.4282 44.1242 10.2714 42.4569 10.4755C40.5869 10.7082 38.7984 11.3797 37.2373 12.4353C35.6763 13.491 34.387 14.9007 33.4747 16.5496H7.25C5.88248 16.5496 4.57097 17.0928 3.60398 18.0598C2.637 19.0268 2.09375 20.3383 2.09375 21.7058V56.7683C2.09375 58.1358 2.637 59.4474 3.60398 60.4143C4.57097 61.3813 5.88248 61.9246 7.25 61.9246H56.75C58.1175 61.9246 59.429 61.3813 60.396 60.4143C61.363 59.4474 61.9062 58.1358 61.9062 56.7683V21.7058C61.906 20.5629 61.526 19.4525 60.826 18.549C60.126 17.6456 59.1457 17.0003 58.0391 16.7146ZM42.7353 12.4864C43.112 12.4449 43.4907 12.4242 43.8697 12.4246C46.2689 12.4168 48.5851 13.3028 50.3666 14.9099C51.4467 15.8792 52.3006 17.0741 52.8676 18.4101C53.4347 19.746 53.7011 21.1903 53.6479 22.6406C53.5948 24.0909 53.2234 25.5119 52.5602 26.8027C51.8969 28.0936 50.9579 29.2228 49.8097 30.1105C48.9408 30.7616 48.2345 31.6051 47.7461 32.5748C47.2576 33.5445 47.0004 34.6141 46.9944 35.6999C46.9944 36.0892 46.8404 36.4628 46.5661 36.739C46.2918 37.0153 45.9193 37.1718 45.53 37.1746H44.8906V29.9558C44.8911 29.7149 44.8072 29.4814 44.6534 29.2958L40.9306 24.7996H46.5097L44.6741 26.6455C44.4812 26.8397 44.3735 27.1025 44.3744 27.3762C44.3754 27.6498 44.485 27.9119 44.6792 28.1047C44.8734 28.2975 45.1362 28.4053 45.4099 28.4044C45.6836 28.4034 45.9456 28.2938 46.1384 28.0996L49.7272 24.4902C49.8697 24.3448 49.966 24.1605 50.0039 23.9604C50.0419 23.7604 50.0197 23.5536 49.9403 23.3661C49.8609 23.1786 49.7278 23.0189 49.5577 22.9069C49.3877 22.795 49.1883 22.7359 48.9847 22.7371H38.7341C38.5379 22.7368 38.3458 22.7924 38.1801 22.8974C38.0145 23.0024 37.8823 23.1525 37.7989 23.33C37.7155 23.5076 37.6846 23.7052 37.7095 23.8997C37.7345 24.0943 37.8145 24.2776 37.94 24.4283L42.8281 30.3271V37.1746H42.1888C41.9951 37.1732 41.8036 37.1337 41.6252 37.0584C41.4468 36.983 41.285 36.8733 41.149 36.7354C41.013 36.5975 40.9055 36.4341 40.8327 36.2547C40.7598 36.0753 40.723 35.8832 40.7244 35.6896C40.714 34.605 40.4537 33.5374 39.9636 32.5698C39.4736 31.6022 38.767 30.7606 37.8988 30.1105C36.3488 28.9131 35.1896 27.282 34.5687 25.4244C33.9477 23.5668 33.8929 21.5666 34.4113 19.6778C34.9296 17.789 35.9977 16.0969 37.4798 14.8164C38.962 13.536 40.7913 12.725 42.7353 12.4864ZM59.8438 56.7683C59.8438 57.5888 59.5178 58.3757 58.9376 58.9559C58.3574 59.5361 57.5705 59.8621 56.75 59.8621H7.25C6.42949 59.8621 5.64258 59.5361 5.06239 58.9559C4.4822 58.3757 4.15625 57.5888 4.15625 56.7683V21.7058C4.15625 20.8853 4.4822 20.0984 5.06239 19.5182C5.64258 18.938 6.42949 18.6121 7.25 18.6121H32.5672C32.364 19.2409 32.2157 19.8861 32.1237 20.5405C31.8057 22.6396 32.0559 24.7857 32.8485 26.7553C33.641 28.7249 34.9469 30.4461 36.6303 31.7399C37.2568 32.1956 37.769 32.7904 38.1269 33.4775C38.4848 34.1646 38.6785 34.9253 38.6928 35.6999C38.6927 36.6309 39.0597 37.5244 39.7142 38.1866C40.3687 38.8488 41.2578 39.2262 42.1888 39.2371H45.53C45.9963 39.2357 46.4576 39.1422 46.8876 38.9619C47.3176 38.7816 47.7077 38.5181 48.0355 38.1865C48.3633 37.8549 48.6222 37.4617 48.7975 37.0297C48.9728 36.5976 49.061 36.1352 49.0569 35.6689C49.0744 34.9008 49.2697 34.1471 49.6276 33.4672C49.9855 32.7873 50.4961 32.1995 51.1194 31.7502C53.0549 30.2651 54.4883 28.222 55.2259 25.8966C55.9636 23.5711 55.97 21.0753 55.2444 18.7461H57.7091C58.3327 18.9495 58.8755 19.3457 59.2592 19.8777C59.6429 20.4097 59.8476 21.0499 59.8438 21.7058V56.7683Z" fill="#3E6C5F"/>
<path d="M9.3125 24.7988C9.88204 24.7988 10.3438 24.3371 10.3438 23.7676C10.3438 23.198 9.88204 22.7363 9.3125 22.7363C8.74296 22.7363 8.28125 23.198 8.28125 23.7676C8.28125 24.3371 8.74296 24.7988 9.3125 24.7988Z" fill="#3E6C5F"/>
<path d="M13.4375 24.7988C14.007 24.7988 14.4688 24.3371 14.4688 23.7676C14.4688 23.198 14.007 22.7363 13.4375 22.7363C12.868 22.7363 12.4062 23.198 12.4062 23.7676C12.4062 24.3371 12.868 24.7988 13.4375 24.7988Z" fill="#3E6C5F"/>
<path d="M17.5625 24.7988C18.132 24.7988 18.5938 24.3371 18.5938 23.7676C18.5938 23.198 18.132 22.7363 17.5625 22.7363C16.993 22.7363 16.5312 23.198 16.5312 23.7676C16.5312 24.3371 16.993 24.7988 17.5625 24.7988Z" fill="#3E6C5F"/>
<path d="M43.9219 7.26758C44.1954 7.26758 44.4577 7.15893 44.6511 6.96553C44.8445 6.77213 44.9531 6.50983 44.9531 6.23633V2.11133C44.9531 1.83782 44.8445 1.57552 44.6511 1.38212C44.4577 1.18873 44.1954 1.08008 43.9219 1.08008C43.6484 1.08008 43.3861 1.18873 43.1927 1.38212C42.9993 1.57552 42.8906 1.83782 42.8906 2.11133V6.23633C42.8906 6.50983 42.9993 6.77213 43.1927 6.96553C43.3861 7.15893 43.6484 7.26758 43.9219 7.26758Z" fill="#3E6C5F"/>
<path d="M51.2144 10.2887C51.3502 10.2895 51.4847 10.2634 51.6103 10.2121C51.736 10.1608 51.8503 10.0852 51.9466 9.98961L54.8651 7.07117C55.034 6.87389 55.1223 6.62013 55.1123 6.36059C55.1022 6.10105 54.9946 5.85485 54.811 5.67119C54.6273 5.48753 54.3811 5.37993 54.1216 5.36991C53.862 5.35988 53.6083 5.44817 53.411 5.61711L50.4926 8.52524C50.3471 8.66948 50.2479 8.85376 50.2076 9.0546C50.1674 9.25543 50.1878 9.46371 50.2663 9.65289C50.3449 9.84207 50.478 10.0036 50.6487 10.1168C50.8194 10.23 51.0199 10.2899 51.2247 10.2887H51.2144Z" fill="#3E6C5F"/>
<path d="M35.8986 9.98876C36.0928 10.183 36.3562 10.292 36.6308 10.292C36.9054 10.292 37.1688 10.183 37.363 9.98876C37.5572 9.79457 37.6663 9.5312 37.6663 9.25657C37.6663 8.98195 37.5572 8.71857 37.363 8.52439L34.4446 5.60595C34.2434 5.46731 33.9996 5.4046 33.7565 5.42898C33.5134 5.45335 33.2869 5.56324 33.1172 5.73906C32.9476 5.91488 32.8459 6.14521 32.8302 6.38901C32.8146 6.63282 32.886 6.87426 33.0318 7.07032L35.8986 9.98876Z" fill="#3E6C5F"/>
<path d="M45.4062 41.2988H42.3125C42.039 41.2988 41.7767 41.4075 41.5833 41.6009C41.3899 41.7943 41.2812 42.0566 41.2812 42.3301C41.2812 42.6036 41.3899 42.8659 41.5833 43.0593C41.7767 43.2527 42.039 43.3613 42.3125 43.3613H45.4062C45.6798 43.3613 45.9421 43.2527 46.1355 43.0593C46.3289 42.8659 46.4375 42.6036 46.4375 42.3301C46.4375 42.0566 46.3289 41.7943 46.1355 41.6009C45.9421 41.4075 45.6798 41.2988 45.4062 41.2988Z" fill="#3E6C5F"/>
<path d="M11.375 35.1113H14.4688C14.7423 35.1113 15.0046 35.0027 15.198 34.8093C15.3914 34.6159 15.5 34.3536 15.5 34.0801C15.5 33.8066 15.3914 33.5443 15.198 33.3509C15.0046 33.1575 14.7423 33.0488 14.4688 33.0488H11.375C11.1015 33.0488 10.8392 33.1575 10.6458 33.3509C10.4524 33.5443 10.3438 33.8066 10.3438 34.0801C10.3438 34.3536 10.4524 34.6159 10.6458 34.8093C10.8392 35.0027 11.1015 35.1113 11.375 35.1113Z" fill="#3E6C5F"/>
<path d="M27.875 37.1738H11.375C11.1015 37.1738 10.8392 37.2825 10.6458 37.4759C10.4524 37.6693 10.3438 37.9316 10.3438 38.2051C10.3438 38.4786 10.4524 38.7409 10.6458 38.9343C10.8392 39.1277 11.1015 39.2363 11.375 39.2363H27.875C28.1485 39.2363 28.4108 39.1277 28.6042 38.9343C28.7976 38.7409 28.9062 38.4786 28.9062 38.2051C28.9062 37.9316 28.7976 37.6693 28.6042 37.4759C28.4108 37.2825 28.1485 37.1738 27.875 37.1738Z" fill="#3E6C5F"/>
<path d="M27.875 41.2988H11.375C11.1015 41.2988 10.8392 41.4075 10.6458 41.6009C10.4524 41.7943 10.3438 42.0566 10.3438 42.3301C10.3438 42.6036 10.4524 42.8659 10.6458 43.0593C10.8392 43.2527 11.1015 43.3613 11.375 43.3613H27.875C28.1485 43.3613 28.4108 43.2527 28.6042 43.0593C28.7976 42.8659 28.9062 42.6036 28.9062 42.3301C28.9062 42.0566 28.7976 41.7943 28.6042 41.6009C28.4108 41.4075 28.1485 41.2988 27.875 41.2988Z" fill="#3E6C5F"/>
<path d="M24.7812 45.4238H11.375C11.1015 45.4238 10.8392 45.5325 10.6458 45.7259C10.4524 45.9193 10.3438 46.1816 10.3438 46.4551C10.3438 46.7286 10.4524 46.9909 10.6458 47.1843C10.8392 47.3777 11.1015 47.4863 11.375 47.4863H24.7812C25.0548 47.4863 25.3171 47.3777 25.5105 47.1843C25.7039 46.9909 25.8125 46.7286 25.8125 46.4551C25.8125 46.1816 25.7039 45.9193 25.5105 45.7259C25.3171 45.5325 25.0548 45.4238 24.7812 45.4238Z" fill="#3E6C5F"/>
<path d="M17.5625 53.6738H11.375C11.1015 53.6738 10.8392 53.7825 10.6458 53.9759C10.4524 54.1693 10.3438 54.4316 10.3438 54.7051C10.3438 54.9786 10.4524 55.2409 10.6458 55.4343C10.8392 55.6277 11.1015 55.7363 11.375 55.7363H17.5625C17.836 55.7363 18.0983 55.6277 18.2917 55.4343C18.4851 55.2409 18.5938 54.9786 18.5938 54.7051C18.5938 54.4316 18.4851 54.1693 18.2917 53.9759C18.0983 53.7825 17.836 53.6738 17.5625 53.6738Z" fill="#3E6C5F"/>
</svg>
