<svg width="66" height="68" viewBox="0 0 66 68" fill="none" xmlns="http://www.w3.org/2000/svg">
<path fill-rule="evenodd" clip-rule="evenodd" d="M55.1215 18.6759L56.2447 16.7143C53.5087 14.5696 50.8009 12.3405 48.0512 10.8281C47.8509 10.7116 47.7042 10.5215 47.6422 10.2983C47.5802 10.0751 47.6079 9.83655 47.7194 9.63351C47.8309 9.43046 48.0173 9.27904 48.2389 9.21157C48.4605 9.1441 48.6997 9.16592 48.9054 9.27237C51.8443 10.8889 54.3774 13.0268 57.3201 15.2992C57.6659 15.5638 57.9031 15.9457 57.9871 16.373C58.0711 16.8003 57.9961 17.2436 57.7761 17.6195L57.3726 18.3171L61.7722 18.8225L62.6211 17.2934L52.1195 5.11289L34.1394 2.38525L34.1341 2.42477L38.3901 7.64065L38.9335 6.78945C39.145 6.45479 39.4616 6.19974 39.8336 6.06428C40.2056 5.92881 40.6121 5.92057 40.9893 6.04085C41.2058 6.11795 41.384 6.27593 41.4864 6.48163C41.5889 6.68734 41.6077 6.92475 41.5389 7.14401C41.47 7.36327 41.3189 7.54731 41.1172 7.65749C40.9155 7.76768 40.679 7.79542 40.4573 7.73489L40.4299 7.74097L37.5001 12.3253C38.211 12.4773 38.91 12.6804 39.5916 12.9333C44.1897 14.5336 48.4678 16.9361 52.2274 20.0294C52.7164 20.456 53.1633 20.9286 53.5619 21.4407L55.1245 18.6759H55.1215ZM24.2404 61.3506V56.9426C24.2404 55.192 24.9358 53.5131 26.1736 52.2753C27.4115 51.0374 29.0904 50.342 30.841 50.342C32.5916 50.342 34.2705 51.0374 35.5083 52.2753C36.7462 53.5131 37.4416 55.192 37.4416 56.9426V61.3461H41.6003V25.6413H20.4639V61.3506H24.2404ZM35.6639 61.3506H26.018V56.9426C26.018 55.6635 26.5261 54.4367 27.4306 53.5323C28.3351 52.6278 29.5618 52.1196 30.841 52.1196C32.1201 52.1196 33.3468 52.6278 34.2513 53.5323C35.1558 54.4367 35.6639 55.6635 35.6639 56.9426V61.3461V61.3506ZM3.86477 61.3506V50.4241H0.735852V43.8258H3.86477V33.7991H0.735852V27.2008H18.6863V25.6413H16.1069V19.5696H18.665V16.0736H36.0082C35.4696 15.495 35.0544 14.8129 34.7877 14.0687C34.7057 13.9006 34.6763 13.7116 34.7034 13.5266C34.7305 13.3415 34.8129 13.1689 34.9397 13.0313L37.3846 9.21005L32.7562 3.54045C32.5279 3.25908 32.3899 2.9153 32.3604 2.55417C32.3308 2.19305 32.4111 1.83141 32.5906 1.51667C32.7701 1.20193 33.0405 0.948763 33.3664 0.790346C33.6922 0.631929 34.0584 0.575653 34.4168 0.628895L52.3839 3.35653C52.8096 3.41891 53.1977 3.63524 53.4745 3.96453L65.4825 17.8999C65.7161 18.1741 65.8619 18.5121 65.9011 18.8702C65.9403 19.2283 65.8711 19.5898 65.7024 19.9081C65.5337 20.2263 65.2733 20.4866 64.9549 20.6551C64.6366 20.8236 64.275 20.8927 63.9169 20.8533L62.745 20.7187L62.308 21.5069C62.4896 21.8452 62.5773 22.226 62.5619 22.6096L62.498 26.0973C62.4789 26.4377 62.3569 26.7643 62.1482 27.0339C61.9395 27.3035 61.6539 27.5035 61.3291 27.6074V33.7953H58.1675L58.1941 43.822H61.3291V50.4203H58.1995V61.3498H61.9881V67.3957H0.0761719V61.3498L3.86477 61.3506ZM38.6994 16.2553C38.4896 16.0698 38.292 15.8874 38.1066 15.7103C37.0532 14.7026 36.3639 14.1508 36.3586 14.1075L36.3745 14.0832C36.6086 13.7921 37.8945 14.2283 38.6918 14.4981C38.7853 14.5301 38.8719 14.5589 39.0497 14.6159C43.4119 16.1417 47.4727 18.4205 51.0479 21.3488C52.1119 22.298 52.71 22.9448 52.6279 23.0968C52.5458 23.2488 51.6574 23.0892 50.2643 22.6887C48.0437 21.9831 45.9038 21.0448 43.8803 19.8896L42.9105 19.3302C41.4553 18.4565 40.0792 17.4571 38.7982 16.3434C38.7688 16.3138 38.7376 16.2861 38.7047 16.2606L38.6994 16.2553ZM37.8307 17.8513C38.4775 18.4068 39.2192 18.9913 40.0431 19.5704H20.4427V17.8505L37.8307 17.8513ZM42.8573 21.3473L43.0093 21.4309L44.1828 22.0594V23.8651H17.8868V21.3473H42.8573ZM45.9574 22.9311C47.192 23.5114 48.4677 23.9999 49.7741 24.3926C52.0093 25.0355 53.6341 24.9246 54.1722 23.9541L54.1958 23.91L56.4074 19.9937L60.8389 20.5021L60.7576 20.6481C60.3728 20.6724 60.0018 20.8003 59.6837 21.0182L56.7562 22.9182C56.5197 23.0986 56.332 23.3353 56.2103 23.6067C56.0886 23.8782 56.0367 24.1758 56.0593 24.4724C56.082 24.769 56.1785 25.0553 56.34 25.3051C56.5016 25.5549 56.723 25.7603 56.9842 25.9027L59.3258 27.2023H43.3779V25.6413H45.9574V22.9281V22.9311ZM63.6775 19.0414C64.2855 19.1106 64.2506 19.1835 63.8539 18.7237L63.6775 19.0414ZM46.0919 7.90209C46.3083 7.99512 46.4788 8.17028 46.5661 8.38906C46.6533 8.60784 46.65 8.85231 46.557 9.06869C46.464 9.28507 46.2888 9.45564 46.07 9.54286C45.8513 9.63009 45.6068 9.62684 45.3904 9.53381L42.8543 8.54125C42.6374 8.45896 42.4615 8.29482 42.3643 8.08415C42.2672 7.87347 42.2566 7.63309 42.3349 7.4147C42.4132 7.19632 42.574 7.01738 42.7829 6.91637C42.9917 6.81536 43.2319 6.80035 43.4517 6.87457L46.0919 7.90589V7.90209ZM60.6505 22.504L57.8324 24.3325V24.3493L60.7067 25.9453H60.7295L60.7812 22.4379C60.7354 22.4568 60.6916 22.4802 60.6505 22.5078V22.504ZM56.4233 43.8258L56.3967 33.7991H43.3779V43.8258H56.4233ZM43.3779 45.6034V48.6434H59.5515V45.6034H43.3779ZM43.3779 50.4241V61.3498H56.4218V50.4241H43.3779ZM5.63937 50.4241V61.3506H18.6863V50.4241H5.63937ZM18.6863 48.6464V45.6064H2.51349V48.6464H18.6863ZM18.6863 43.8258V33.7991H5.63937V43.8258H18.6863ZM28.1681 39.0173C27.9368 39.0105 27.7173 38.9139 27.5562 38.7479C27.395 38.582 27.3048 38.3598 27.3048 38.1284C27.3048 37.8971 27.395 37.6749 27.5562 37.5089C27.7173 37.343 27.9368 37.2464 28.1681 37.2396H30.3037V32.2821C30.3002 32.1632 30.3206 32.0448 30.3637 31.9339C30.4068 31.8231 30.4717 31.722 30.5546 31.6366C30.6375 31.5513 30.7366 31.4835 30.8462 31.4371C30.9558 31.3908 31.0735 31.3669 31.1925 31.3669C31.3114 31.3669 31.4292 31.3908 31.5388 31.4371C31.6483 31.4835 31.7475 31.5513 31.8304 31.6366C31.9132 31.722 31.9781 31.8231 32.0213 31.9339C32.0644 32.0448 32.0848 32.1632 32.0813 32.2821V39.0173H28.1681ZM31.0325 28.9381C32.8384 28.9378 34.6038 29.4731 36.1055 30.4761C37.6073 31.4792 38.7778 32.9051 39.4691 34.5734C40.1604 36.2417 40.3415 38.0776 39.9895 39.8489C39.6374 41.6201 38.768 43.2472 37.4912 44.5243C36.2144 45.8014 34.5875 46.6712 32.8163 47.0238C31.0452 47.3763 29.2093 47.1957 27.5407 46.5047C25.8722 45.8138 24.4461 44.6437 23.4426 43.1422C22.4392 41.6407 21.9035 39.8754 21.9034 38.0695C21.9034 35.6482 22.8651 33.326 24.5771 31.6137C26.2891 29.9014 28.6112 28.9385 31.0325 28.9381ZM36.2317 32.8689C37.2602 33.8973 37.9607 35.2076 38.2445 36.6341C38.5283 38.0606 38.3828 39.5392 37.8262 40.883C37.2696 42.2268 36.3271 43.3754 35.1177 44.1835C33.9084 44.9915 32.4866 45.4229 31.0321 45.4229C29.5776 45.4229 28.1558 44.9915 26.9465 44.1835C25.7371 43.3754 24.7946 42.2268 24.238 40.883C23.6815 39.5392 23.5359 38.0606 23.8197 36.6341C24.1036 35.2076 24.804 33.8973 25.8326 32.8689C27.2116 31.49 29.0819 30.7153 31.0321 30.7153C32.9823 30.7153 34.8526 31.49 36.2317 32.8689ZM60.2074 63.1275H1.85381V65.6172H60.2074V63.1275ZM2.51349 32.0253H18.6863V28.9853H2.51349V32.0253ZM59.5515 28.9853H43.3779V32.0253H59.5515V28.9853Z" fill="#8A1538"/>
</svg>
