<svg width="77" height="84" viewBox="0 0 77 84" fill="none" xmlns="http://www.w3.org/2000/svg">
<path d="M75.2162 84.0011H0.944135C0.429151 84.0011 0 83.5719 0 83.0569V76.1619C0 71.3268 1.51634 66.6919 4.40597 62.7723C7.2956 58.8527 11.2724 56.0203 15.9073 54.6184L28.3241 50.8419V46.1212C28.3241 45.6062 28.7532 45.177 29.2682 45.177C29.7832 45.177 30.2124 45.6062 30.2124 46.1212V51.5571C30.2124 51.9577 29.9263 52.3296 29.5257 52.4726L16.4509 56.5067C7.75336 59.196 1.88827 67.1211 1.88827 76.2191V82.17H74.272V76.2191C74.272 67.0924 68.4069 59.196 59.7095 56.5067L46.6632 52.444C46.2627 52.3296 45.9766 51.9577 45.9766 51.5285V46.0926C45.9766 45.5776 46.4057 45.1484 46.9207 45.1484C47.4357 45.1484 47.8648 45.5776 47.8648 46.0926V50.8133L60.2817 54.647C64.9165 56.0775 68.8933 58.8813 71.7829 62.8009C74.6726 66.7205 76.1889 71.3268 76.1889 76.1905V83.0855C76.1889 83.5719 75.7598 84.0011 75.2162 84.0011Z" fill="#8A1538"/>
<path d="M12.448 83.9991C11.9331 83.9991 11.5039 83.57 11.5039 83.055V57.077C11.5039 56.562 11.9331 56.1328 12.448 56.1328C12.963 56.1328 13.3922 56.562 13.3922 57.077V83.055C13.3636 83.57 12.963 83.9991 12.448 83.9991Z" fill="#8A1538"/>
<path d="M19.0242 84.0013C18.5092 84.0013 18.0801 83.5722 18.0801 83.0572V54.6473C18.0801 54.1323 18.5092 53.7031 19.0242 53.7031C19.5392 53.7031 19.9683 54.1323 19.9683 54.6473V83.0572C19.997 83.5722 19.5678 84.0013 19.0242 84.0013Z" fill="#8A1538"/>
<path d="M58.825 83.9941C58.31 83.9941 57.8809 83.565 57.8809 83.05V55.1551C57.8809 54.6401 58.31 54.2109 58.825 54.2109C59.34 54.2109 59.7691 54.6401 59.7691 55.1551V83.05C59.7691 83.565 59.34 83.9941 58.825 83.9941Z" fill="#8A1538"/>
<path d="M65.4286 84.0004C64.9136 84.0004 64.4844 83.5713 64.4844 83.0563V58.1082C64.4844 57.5932 64.9136 57.1641 65.4286 57.1641C65.9436 57.1641 66.3727 57.5932 66.3727 58.1082V83.0563C66.3727 83.5713 65.9436 84.0004 65.4286 84.0004Z" fill="#8A1538"/>
<path d="M38.0745 50.3224C35.6426 50.3224 33.2108 49.6644 31.0364 48.3769C29.6059 47.5186 28.3184 46.5745 27.2026 45.6304C22.625 41.7108 20.0215 35.9315 20.0215 29.8375V25.8035C20.0215 25.2885 20.4506 24.8594 20.9656 24.8594C21.4806 24.8594 21.9098 25.2885 21.9098 25.8035V29.8375C21.9098 35.3879 24.2844 40.6236 28.4329 44.1999C29.4628 45.0868 30.6645 45.9451 31.9805 46.7462C35.6999 48.9778 40.3347 48.9778 44.054 46.7462C45.3129 45.9737 46.5145 45.1154 47.6017 44.1999C51.7502 40.6236 54.1248 35.4165 54.1248 29.8375V25.8035C54.1248 25.2885 54.554 24.8594 55.069 24.8594C55.5839 24.8594 56.0131 25.2885 56.0131 25.8035V29.8375C56.0131 35.9601 53.4096 41.7108 48.8319 45.6304C47.6589 46.6317 46.3715 47.5759 45.0268 48.3769C42.9382 49.693 40.5064 50.3224 38.0745 50.3224Z" fill="#8A1538"/>
<path d="M38.2207 57.9647C35.6744 57.9647 33.2711 57.3353 31.4115 56.2195C29.4088 54.9893 28.293 53.3299 28.293 51.4988C28.293 50.9838 28.7221 50.5547 29.2371 50.5547C29.7521 50.5547 30.1812 50.9838 30.1812 51.4988C30.1812 53.9879 33.8433 56.0765 38.1635 56.0765C42.4264 56.0765 45.8882 54.0165 45.8882 51.4988C45.8882 50.9838 46.3174 50.5547 46.8324 50.5547C47.3474 50.5547 47.7765 50.9838 47.7765 51.4988C47.8337 55.1037 43.628 57.9647 38.2207 57.9647Z" fill="#8A1538"/>
<path d="M75.2125 78.2242H65.3992C64.8842 78.2242 64.4551 77.7951 64.4551 77.2801C64.4551 76.7651 64.8842 76.3359 65.3992 76.3359H75.1839C75.6989 76.3359 76.128 76.7651 76.128 77.2801C76.1852 77.7951 75.7561 78.2242 75.2125 78.2242Z" fill="#8A1538"/>
<path d="M12.4454 78.2164H0.944135C0.429151 78.2164 0 77.7872 0 77.2723C0 76.7573 0.429151 76.3281 0.944135 76.3281H12.4168C12.9318 76.3281 13.361 76.7573 13.361 77.2723C13.361 77.7872 12.9604 78.2164 12.4454 78.2164Z" fill="#8A1538"/>
<path d="M38.2195 78.2198C37.7045 78.2198 37.2754 77.7906 37.2754 77.2756V56.991C37.2754 56.476 37.7045 56.0469 38.2195 56.0469C38.7345 56.0469 39.1637 56.476 39.1637 56.991V77.2756C39.1637 77.7906 38.7345 78.2198 38.2195 78.2198Z" fill="#8A1538"/>
<path d="M51.2377 67.8961H46.4598C45.9448 67.8961 45.5156 67.4669 45.5156 66.952C45.5156 66.437 45.9448 66.0078 46.4598 66.0078H51.2377C51.7526 66.0078 52.1818 66.437 52.1818 66.952C52.2104 67.4669 51.7813 67.8961 51.2377 67.8961Z" fill="#8A1538"/>
<path d="M58.821 78.2242H19.0242C18.5092 78.2242 18.0801 77.7951 18.0801 77.2801C18.0801 76.7651 18.5092 76.3359 19.0242 76.3359H58.821C59.336 76.3359 59.7651 76.7651 59.7651 77.2801C59.7651 77.7951 59.336 78.2242 58.821 78.2242Z" fill="#8A1538"/>
<path d="M38.1927 16.9086C36.5333 16.9086 35.16 15.5925 35.16 13.9332L34.7023 2.14576C34.6737 1.60217 34.8453 1.05858 35.2173 0.658035C35.6178 0.257493 36.1328 0 36.705 0H39.7091C40.2527 0 40.7962 0.228882 41.1682 0.658035C41.5401 1.05858 41.7404 1.60217 41.7118 2.14576L41.254 13.9618C41.1968 15.6212 39.8521 16.9086 38.1927 16.9086ZM36.705 1.91688C36.6764 1.91688 36.6192 1.94549 36.6192 1.94549C36.5906 1.9741 36.5906 1.9741 36.5906 1.9741V2.03132L37.0483 13.8759V13.9046C37.0483 14.5054 37.5347 14.9917 38.1927 14.9917C38.8221 14.9917 39.3371 14.5054 39.3657 13.8759L39.8235 2.03132V2.00271C39.8235 1.9741 39.7949 1.94549 39.7949 1.91688C39.7949 1.91688 39.7663 1.88827 39.7377 1.88827L36.705 1.91688Z" fill="#8A1538"/>
<path d="M29.3158 14.5942C27.5992 14.5942 26.1973 13.1923 26.1973 11.4757V6.01113C26.1973 5.49615 26.6264 5.067 27.1414 5.067C27.6564 5.067 28.0855 5.49615 28.0855 6.01113V11.4757C28.0855 12.1337 28.6291 12.7059 29.3158 12.7059C29.9738 12.7059 30.546 12.1623 30.546 11.4757V3.35039C30.546 2.8354 30.9752 2.40625 31.4901 2.40625C32.0051 2.40625 32.4343 2.8354 32.4343 3.35039V11.4471C32.4629 13.1637 31.061 14.5942 29.3158 14.5942Z" fill="#8A1538"/>
<path d="M47.0293 14.5942C46.171 14.5942 45.3986 14.2509 44.8264 13.6787C44.2542 13.1065 43.9395 12.3054 43.9395 11.5043V3.35039C43.9395 2.8354 44.3686 2.40625 44.8836 2.40625C45.3986 2.40625 45.8277 2.8354 45.8277 3.35039V11.4757C45.8277 11.819 45.9422 12.1051 46.171 12.334L46.1997 12.3626C46.4285 12.5915 46.686 12.7059 47.0293 12.7059C47.6874 12.7059 48.2596 12.1623 48.2596 11.4757V6.01113C48.2596 5.49615 48.6887 5.067 49.2037 5.067C49.7187 5.067 50.1479 5.49615 50.1479 6.01113V11.4757C50.1765 13.1923 48.746 14.5942 47.0293 14.5942Z" fill="#8A1538"/>
<path d="M19.6512 22.6315C19.1362 22.6315 18.707 22.2023 18.707 21.6873C18.7356 16.9094 20.4236 12.1315 23.5421 8.29778C26.7179 4.37819 30.9522 1.86049 35.5012 1.23107C36.0162 1.14524 36.5026 1.51717 36.5884 2.06076C36.6742 2.57575 36.3023 3.06212 35.7587 3.14795C27.4331 4.32097 20.6525 12.6465 20.6239 21.716C20.6239 22.2023 20.1948 22.6315 19.6512 22.6315Z" fill="#8A1538"/>
<path d="M56.7115 22.6301C56.1965 22.6301 55.7673 22.201 55.7673 21.686C55.7387 12.6166 48.9581 4.29102 40.6326 3.118C40.1176 3.03217 39.7456 2.57441 39.8029 2.03082C39.8887 1.51583 40.3465 1.1439 40.8901 1.20112C45.4391 1.85916 49.702 4.34824 52.8491 8.26784C55.9676 12.1016 57.6556 16.8509 57.6842 21.6574C57.6842 22.201 57.2551 22.6301 56.7115 22.6301Z" fill="#8A1538"/>
<path d="M56.8508 26.7816H19.5431C17.8837 26.7816 16.5391 25.4369 16.5391 23.7775C16.5391 22.1181 17.8837 20.7734 19.5431 20.7734H56.8222C58.4816 20.7734 59.8263 22.1181 59.8263 23.7775C59.8549 24.5786 59.5402 25.3511 58.968 25.8947C58.4244 26.4669 57.6519 26.7816 56.8508 26.7816ZM19.5431 22.6331C18.9137 22.6331 18.4273 23.1195 18.4273 23.7489C18.4273 24.3783 18.9137 24.8647 19.5431 24.8647H56.8508C57.1369 24.8647 57.423 24.7503 57.6233 24.55C57.8235 24.3497 57.938 24.0636 57.938 23.7775C57.938 23.1195 57.4516 22.6617 56.8222 22.6617L19.5431 22.6331Z" fill="#8A1538"/>
</svg>
