<svg width="22" height="22" viewBox="0 0 22 22" fill="none" xmlns="http://www.w3.org/2000/svg">
<path d="M15.1016 8.3129C15.4921 7.92237 15.4921 7.28921 15.1016 6.89868C14.7111 6.50816 14.0779 6.50816 13.6874 6.89868L15.1016 8.3129ZM6.89917 13.6869C6.50865 14.0774 6.50865 14.7106 6.89917 15.1011C7.28969 15.4916 7.92286 15.4916 8.31338 15.1011L6.89917 13.6869ZM13.6874 15.1011C14.0779 15.4916 14.7111 15.4916 15.1016 15.1011C15.4921 14.7106 15.4921 14.0774 15.1016 13.6869L13.6874 15.1011ZM8.31338 6.89868C7.92286 6.50816 7.28969 6.50816 6.89917 6.89868C6.50865 7.28921 6.50865 7.92237 6.89917 8.3129L8.31338 6.89868ZM19.6004 10.9999C19.6004 15.7496 15.75 19.5999 11.0004 19.5999V21.5999C16.8546 21.5999 21.6004 16.8541 21.6004 10.9999H19.6004ZM11.0004 19.5999C6.25074 19.5999 2.40039 15.7496 2.40039 10.9999H0.400391C0.400391 16.8541 5.14617 21.5999 11.0004 21.5999V19.5999ZM2.40039 10.9999C2.40039 6.25025 6.25074 2.3999 11.0004 2.3999V0.399902C5.14617 0.399902 0.400391 5.14568 0.400391 10.9999H2.40039ZM11.0004 2.3999C15.75 2.3999 19.6004 6.25025 19.6004 10.9999H21.6004C21.6004 5.14568 16.8546 0.399902 11.0004 0.399902V2.3999ZM13.6874 6.89868L10.2933 10.2928L11.7075 11.707L15.1016 8.3129L13.6874 6.89868ZM10.2933 10.2928L6.89917 13.6869L8.31338 15.1011L11.7075 11.707L10.2933 10.2928ZM15.1016 13.6869L11.7075 10.2928L10.2933 11.707L13.6874 15.1011L15.1016 13.6869ZM11.7075 10.2928L8.31338 6.89868L6.89917 8.3129L10.2933 11.707L11.7075 10.2928Z" fill="#B6B6B6"/>
</svg>
