<svg width="23" height="22" viewBox="0 0 23 22" fill="none" xmlns="http://www.w3.org/2000/svg">
<path d="M12.523 0.415527C13.7344 0.418758 14.3492 0.425218 14.88 0.440292L15.0889 0.44783C15.33 0.456444 15.568 0.467211 15.8555 0.480132C17.0011 0.533969 17.7828 0.714862 18.4687 0.980817C19.1793 1.25431 19.7779 1.62471 20.3766 2.2223C20.9241 2.76056 21.3477 3.41166 21.618 4.13029C21.884 4.81618 22.0649 5.59789 22.1187 6.74462C22.1316 7.03104 22.1424 7.269 22.151 7.51126L22.1575 7.72015C22.1736 8.24991 22.1801 8.86473 22.1822 10.0761L22.1833 10.8793V12.2898C22.186 13.0752 22.1777 13.8606 22.1586 14.6458L22.1521 14.8547C22.1435 15.0969 22.1327 15.3349 22.1198 15.6213C22.066 16.768 21.8829 17.5487 21.618 18.2356C21.3485 18.9546 20.9248 19.6059 20.3766 20.1436C19.8382 20.6909 19.1872 21.1146 18.4687 21.3851C17.7828 21.6511 17.0011 21.8319 15.8555 21.8858C15.6 21.8978 15.3444 21.9086 15.0889 21.9181L14.88 21.9245C14.3492 21.9396 13.7344 21.9472 12.523 21.9493L11.7198 21.9504H10.3104C9.52469 21.9531 8.73897 21.9448 7.95348 21.9256L7.7446 21.9192C7.489 21.9095 7.23345 21.8984 6.97798 21.8858C5.83235 21.8319 5.05066 21.6511 4.36372 21.3851C3.64519 21.1152 2.99437 20.6915 2.45686 20.1436C1.90886 19.6055 1.48483 18.9544 1.21433 18.2356C0.948385 17.5497 0.767497 16.768 0.713661 15.6213C0.701666 15.3658 0.690898 15.1102 0.68136 14.8547L0.675977 14.6458C0.656135 13.8606 0.647162 13.0752 0.649059 12.2898V10.0761C0.646054 9.29069 0.65395 8.50531 0.672747 7.72015L0.680283 7.51126C0.688897 7.269 0.699664 7.03104 0.712585 6.74462C0.76642 5.59789 0.947308 4.81725 1.21326 4.13029C1.48363 3.41092 1.90851 2.75962 2.45794 2.2223C2.99532 1.67475 3.64571 1.25107 4.36372 0.980817C5.05066 0.714862 5.83128 0.533969 6.97798 0.480132C7.26438 0.467211 7.50341 0.456444 7.7446 0.44783L7.95348 0.441369C8.73861 0.422238 9.52397 0.413983 10.3093 0.416604L12.523 0.415527ZM11.4162 5.79924C9.98838 5.79924 8.61905 6.36645 7.60943 7.3761C6.59982 8.38574 6.03262 9.75511 6.03262 11.183C6.03262 12.6108 6.59982 13.9802 7.60943 14.9898C8.61905 15.9995 9.98838 16.5667 11.4162 16.5667C12.844 16.5667 14.2133 15.9995 15.2229 14.9898C16.2326 13.9802 16.7998 12.6108 16.7998 11.183C16.7998 9.75511 16.2326 8.38574 15.2229 7.3761C14.2133 6.36645 12.844 5.79924 11.4162 5.79924ZM11.4162 7.95273C11.8404 7.95266 12.2604 8.03614 12.6523 8.19841C13.0443 8.36068 13.4004 8.59855 13.7004 8.89846C14.0004 9.19836 14.2384 9.55442 14.4008 9.94631C14.5632 10.3382 14.6468 10.7582 14.6469 11.1824C14.6469 11.6066 14.5635 12.0267 14.4012 12.4186C14.2389 12.8106 14.0011 13.1667 13.7012 13.4667C13.4013 13.7667 13.0452 14.0047 12.6533 14.1671C12.2615 14.3295 11.8415 14.4131 11.4173 14.4132C10.5606 14.4132 9.73898 14.0729 9.13321 13.4671C8.52744 12.8613 8.18713 12.0397 8.18713 11.183C8.18713 10.3262 8.52744 9.50463 9.13321 8.89884C9.73898 8.29305 10.5606 7.95273 11.4173 7.95273M17.07 4.18413C16.7131 4.18413 16.3707 4.32593 16.1183 4.57834C15.8659 4.83075 15.7241 5.17309 15.7241 5.53006C15.7241 5.88702 15.8659 6.22936 16.1183 6.48177C16.3707 6.73418 16.7131 6.87599 17.07 6.87599C17.427 6.87599 17.7693 6.73418 18.0217 6.48177C18.2741 6.22936 18.4159 5.88702 18.4159 5.53006C18.4159 5.17309 18.2741 4.83075 18.0217 4.57834C17.7693 4.32593 17.427 4.18413 17.07 4.18413Z" fill="white"/>
</svg>
