<svg width="21" height="20" viewBox="0 0 21 20" fill="none" xmlns="http://www.w3.org/2000/svg">
<path fill-rule="evenodd" clip-rule="evenodd" d="M20.3594 19.0785H16.2364V12.5457C16.2364 10.755 15.5054 9.75408 13.9793 9.75408C12.3216 9.75408 11.4563 10.7958 11.4563 12.5457V19.0785H7.48506V6.63466H11.4563V8.31103C11.8804 7.67339 12.4747 7.1488 13.1814 6.78837C13.8881 6.42794 14.6832 6.24396 15.4891 6.25436C18.3255 6.25436 20.3569 7.86657 20.3569 11.1995L20.3594 19.0785ZM2.74636 5.00612C2.2575 5.00959 1.77854 4.87789 1.37025 4.62774C0.961954 4.37759 0.642727 4.02026 0.453059 3.60107C0.26339 3.18188 0.211828 2.71973 0.304914 2.27324C0.397999 1.82674 0.631537 1.41603 0.975902 1.0932C1.32027 0.770375 1.75994 0.549975 2.23915 0.459963C2.71836 0.369951 3.21551 0.414382 3.66754 0.587622C4.11956 0.760861 4.5061 1.0551 4.7781 1.43302C5.0501 1.81093 5.19532 2.25549 5.19534 2.7103C5.19767 3.31683 4.941 3.89939 4.48177 4.32991C4.02253 4.76042 3.39832 5.00365 2.74636 5.00612ZM0.694889 19.0785H4.83295V6.63466H0.694889V19.0785Z" fill="white"/>
</svg>
