<svg width="21" height="20" viewBox="0 0 21 20" fill="none" xmlns="http://www.w3.org/2000/svg">
<path d="M10.2209 18.9733C5.37159 18.9733 1.44043 15.0422 1.44043 10.1928C1.44043 5.34351 5.37159 1.41235 10.2209 1.41235C13.9058 1.41235 17.0606 3.68229 18.3632 6.90016M2.53799 13.4855H5.09897C6.10924 13.4855 6.92823 12.6665 6.92823 11.6563V9.2782C6.92823 8.26793 7.74723 7.44894 8.7575 7.44894H10.5868C11.597 7.44894 12.416 6.62995 12.416 5.61967V2.50991M15.9282 13.705V13.639M19.4404 13.6287C19.4404 15.9192 15.9282 18.9733 15.9282 18.9733C15.9282 18.9733 12.416 15.9192 12.416 13.6287C12.416 11.7311 13.9885 10.1928 15.9282 10.1928C17.868 10.1928 19.4404 11.7311 19.4404 13.6287Z" stroke="#941D41" stroke-width="2" stroke-linecap="round" stroke-linejoin="round"/>
</svg>
