<svg width="14" height="81" viewBox="0 0 14 81" fill="none" xmlns="http://www.w3.org/2000/svg">
<path d="M13.24 38C13.24 39.6 12.84 41.1 12.02 42.32L10.42 41.82C11.34 40.64 11.72 38.84 11.72 37.66C11.72 36.96 11.6 36.12 11.46 35.68C11.14 35.14 10.48 34.68 9.7 34.68C6.56 34.68 8.48 42.06 3.92 42.06C1.6 42.06 0.159999 40.12 0.159999 37.4C0.159999 36.2 0.439999 34.62 1.4 33.54L2.92 34.02C2.1 35.08 1.68 36.54 1.68 37.88C1.68 38.76 1.88 39.3 2.1 39.72C2.42 40.04 3.02 40.38 3.68 40.38C6.78 40.38 4.84 32.98 9.44 32.98C11.82 32.98 13.24 34.98 13.24 38ZM8.66 25.9969C7.58 25.9969 6.64 26.3969 6.64 27.5969C6.64 28.3169 7.18 29.0969 7.72 29.5769L13 29.5769L13 31.1769L-1.23206e-06 31.1769L-1.302e-06 29.5769L6.3 29.5769C5.56 28.9769 5.2 28.1769 5.2 27.2169C5.2 25.2369 6.5 24.3969 8.38 24.3969L13 24.3969L13 25.9969L8.66 25.9969ZM13 17.5306L12.28 17.7106C12.9 18.2706 13.24 19.1706 13.24 20.1506C13.24 21.7706 12.48 22.8306 10.8 22.8306C9.28 22.8306 8.52 21.7506 8.52 19.6306L8.52 17.7306L8.12 17.7306C7.08 17.7306 6.64 18.2906 6.64 19.5906C6.64 20.3306 6.84 21.2706 7.1 21.7706L5.78 22.1906C5.44 21.4106 5.2 20.2706 5.2 19.3706C5.2 17.1306 6.12 16.1306 8.24 16.1306L13 16.1306L13 17.5306ZM10.8 21.2306C11.52 21.2306 11.84 20.7906 11.84 19.8706C11.84 19.0106 11.46 18.1106 10.94 17.7306L9.86 17.7306L9.86 19.6306C9.86 20.3306 9.9 20.7306 10 21.0506C10.22 21.1706 10.5 21.2306 10.8 21.2306ZM13 14.0089L5.44 14.0089L5.44 12.6089L6.36 12.4289C5.56 11.9089 5.2 11.1689 5.2 10.2889C5.2 9.76891 5.34 9.30891 5.62 8.88891L7.24 9.40891C6.94 9.82891 6.74 10.1889 6.74 10.6689C6.74 11.3889 7.2 12.0489 7.76 12.4089L13 12.4089L13 14.0089ZM13.24 4.57375C13.24 6.87375 12 8.49375 9.36 8.49375C6.94 8.49375 5.2 7.11375 5.2 4.77375C5.2 1.89375 7.3 1.01375 9.86 1.25375L9.86 6.89375C10.94 6.87375 11.8 6.03375 11.8 4.39375C11.8 3.67375 11.64 2.95375 11.14 2.11375L12.5 1.71375C13 2.53375 13.24 3.55375 13.24 4.57375ZM8.46 6.87375L8.46 2.79375C7.26 2.87375 6.64 3.65375 6.64 4.77375C6.64 5.59375 6.94 6.15375 7.26 6.47375C7.68 6.73375 8.04 6.85375 8.46 6.87375Z" fill="#FFFEF5"/>
<path d="M6.5 57L6.5 80.3357" stroke="#FFFEF5" stroke-width="0.5"/>
</svg>
