<svg width="22" height="17" viewBox="0 0 22 17" fill="none" xmlns="http://www.w3.org/2000/svg">
<path d="M21.3749 3.54028C21.3749 3.54028 21.1666 1.95629 20.5249 1.26077C19.7124 0.34538 18.8041 0.340893 18.3874 0.287046C15.404 0.0537108 10.9248 0.0537109 10.9248 0.0537109H10.9165C10.9165 0.0537109 6.43729 0.0537108 3.45393 0.287046C3.03726 0.340893 2.12892 0.34538 1.31641 1.26077C0.674743 1.95629 0.470575 3.54028 0.470575 3.54028C0.470575 3.54028 0.253906 5.40247 0.253906 7.26018V9.00122C0.253906 10.8589 0.466408 12.7211 0.466408 12.7211C0.466408 12.7211 0.674743 14.3051 1.31225 15.0006C2.12475 15.916 3.19143 15.8846 3.66643 15.9833C5.37478 16.1583 10.9207 16.2122 10.9207 16.2122C10.9207 16.2122 15.404 16.2032 18.3874 15.9744C18.8041 15.9205 19.7124 15.916 20.5249 15.0006C21.1666 14.3051 21.3749 12.7211 21.3749 12.7211C21.3749 12.7211 21.5874 10.8634 21.5874 9.00122V7.26018C21.5874 5.40247 21.3749 3.54028 21.3749 3.54028ZM8.71647 11.1147V4.65759L14.479 7.89736L8.71647 11.1147Z" fill="white"/>
</svg>
