<svg width="77" height="84" viewBox="0 0 77 84" fill="none" xmlns="http://www.w3.org/2000/svg">
<path d="M47.451 75.6401H5.79858C4.26112 75.6387 2.78703 75.0273 1.69988 73.9402C0.612728 72.853 0.00136876 71.3789 0 69.8415V5.79858C0.00171026 4.26123 0.613178 2.78733 1.70025 1.70026C2.78733 0.61318 4.26123 0.00171026 5.79858 0H55.0006C56.538 0.00171026 58.0119 0.61318 59.0989 1.70026C60.186 2.78733 60.7975 4.26123 60.7992 5.79858V44.0677C60.7992 44.2733 60.7175 44.4706 60.5721 44.616C60.4267 44.7614 60.2295 44.8431 60.0238 44.8431C59.8182 44.8431 59.6209 44.7614 59.4755 44.616C59.3301 44.4706 59.2484 44.2733 59.2484 44.0677V5.79858C59.244 4.67335 58.795 3.59548 57.9994 2.79981C57.2037 2.00415 56.1258 1.55519 55.0006 1.55077H5.79858C4.67179 1.55281 3.59159 2.00071 2.79397 2.79663C1.99636 3.59255 1.54616 4.67179 1.54172 5.79858V69.8415C1.54275 70.9691 1.99116 72.0503 2.78853 72.8476C3.58589 73.645 4.66706 74.0934 5.79471 74.0945H47.451C47.6566 74.0945 47.8538 74.1761 47.9992 74.3216C48.1446 74.467 48.2263 74.6642 48.2263 74.8698C48.2263 75.0755 48.1446 75.2727 47.9992 75.4181C47.8538 75.5635 47.6566 75.6452 47.451 75.6452V75.6401Z" fill="#8A1538"/>
<path d="M49.2839 71.0981H5.79777C5.46405 71.0977 5.14409 70.965 4.90811 70.729C4.67213 70.493 4.5394 70.1731 4.53906 69.8394V5.79648C4.53941 5.46287 4.67217 5.14305 4.90819 4.90727C5.1442 4.6715 5.46416 4.53906 5.79777 4.53906H54.9998C55.3334 4.53906 55.6534 4.6715 55.8894 4.90727C56.1254 5.14305 56.2582 5.46287 56.2585 5.79648V44.0746C56.2585 44.2803 56.1768 44.4775 56.0314 44.6229C55.886 44.7683 55.6888 44.85 55.4831 44.85C55.2775 44.85 55.0802 44.7683 54.9348 44.6229C54.7894 44.4775 54.7077 44.2803 54.7077 44.0746V6.08079H6.08595V69.5525H49.2839C49.4896 69.5525 49.6868 69.6342 49.8322 69.7796C49.9776 69.925 50.0593 70.1222 50.0593 70.3279C50.0593 70.5335 49.9776 70.7307 49.8322 70.8761C49.6868 71.0215 49.4896 71.1032 49.2839 71.1032V71.0981Z" fill="#8A1538"/>
<path d="M45.4455 19.2539H15.3555C15.1498 19.2539 14.9526 19.1722 14.8072 19.0268C14.6618 18.8814 14.5801 18.6842 14.5801 18.4785C14.5801 18.2729 14.6618 18.0756 14.8072 17.9302C14.9526 17.7848 15.1498 17.7031 15.3555 17.7031H45.4455C45.6512 17.7031 45.8484 17.7848 45.9938 17.9302C46.1392 18.0756 46.2209 18.2729 46.2209 18.4785C46.2209 18.6842 46.1392 18.8814 45.9938 19.0268C45.8484 19.1722 45.6512 19.2539 45.4455 19.2539Z" fill="#8A1538"/>
<path d="M45.4455 32.1445H15.3555C15.1498 32.1445 14.9526 32.0628 14.8072 31.9174C14.6618 31.772 14.5801 31.5748 14.5801 31.3691C14.5801 31.1635 14.6618 30.9663 14.8072 30.8209C14.9526 30.6754 15.1498 30.5938 15.3555 30.5938H45.4455C45.6512 30.5938 45.8484 30.6754 45.9938 30.8209C46.1392 30.9663 46.2209 31.1635 46.2209 31.3691C46.2209 31.5748 46.1392 31.772 45.9938 31.9174C45.8484 32.0628 45.6512 32.1445 45.4455 32.1445Z" fill="#8A1538"/>
<path d="M45.4455 45.043H15.3555C15.1498 45.043 14.9526 44.9613 14.8072 44.8159C14.6618 44.6704 14.5801 44.4732 14.5801 44.2676C14.5801 44.0619 14.6618 43.8647 14.8072 43.7193C14.9526 43.5739 15.1498 43.4922 15.3555 43.4922H45.4455C45.6512 43.4922 45.8484 43.5739 45.9938 43.7193C46.1392 43.8647 46.2209 44.0619 46.2209 44.2676C46.2209 44.4732 46.1392 44.6704 45.9938 44.8159C45.8484 44.9613 45.6512 45.043 45.4455 45.043Z" fill="#8A1538"/>
<path d="M45.4455 57.9336H15.3555C15.1498 57.9336 14.9526 57.8519 14.8072 57.7065C14.6618 57.5611 14.5801 57.3638 14.5801 57.1582C14.5801 56.9526 14.6618 56.7553 14.8072 56.6099C14.9526 56.4645 15.1498 56.3828 15.3555 56.3828H45.4455C45.6512 56.3828 45.8484 56.4645 45.9938 56.6099C46.1392 56.7553 46.2209 56.9526 46.2209 57.1582C46.2209 57.3638 46.1392 57.5611 45.9938 57.7065C45.8484 57.8519 45.6512 57.9336 45.4455 57.9336Z" fill="#8A1538"/>
<path d="M61.6669 70.1594C60.6795 70.1594 60.2699 69.2109 59.9985 68.5828C59.9313 68.429 59.8344 68.2029 59.7478 68.0517C59.6612 68.2029 59.5643 68.429 59.4971 68.5828C59.2257 69.2109 58.816 70.1594 57.8274 70.1594C56.7432 70.1594 56.4472 69.1424 56.2883 68.5944C56.2314 68.3954 56.1229 68.0232 56.0363 67.9625C55.9342 67.9457 55.5956 68.1318 55.4134 68.2326C54.9146 68.5066 53.9918 69.0183 53.2165 68.2507C52.5173 67.5516 52.8986 66.5901 53.1506 65.9543C53.2126 65.7992 53.3031 65.5666 53.3496 65.4024C53.162 65.459 52.9774 65.525 52.7965 65.6002C52.1606 65.8586 51.2005 66.2347 50.5013 65.5356C49.8022 64.8364 50.1834 63.8762 50.4354 63.2391C50.5182 63.0443 50.5886 62.8445 50.6461 62.6408C50.3651 62.6723 50.0869 62.725 49.8138 62.7984C49.0682 62.9781 47.8211 63.2792 47.3778 62.2092C46.9346 61.1391 48.024 60.4697 48.6843 60.0704C48.929 59.9291 49.1627 59.7697 49.3835 59.5935C49.1991 59.4897 49.0084 59.3977 48.8123 59.3183C48.1842 59.0469 47.2344 58.6372 47.2344 57.6486C47.2344 56.66 48.1842 56.2503 48.8123 55.9789C48.9661 55.913 49.1909 55.8148 49.3421 55.7295C49.1699 55.6371 48.993 55.5534 48.8123 55.4788C48.1842 55.2074 47.2344 54.7978 47.2344 53.8092C47.2344 52.7236 48.2527 52.429 48.7994 52.27C48.9984 52.2119 49.3706 52.1046 49.4313 52.0115C49.4494 51.9095 49.262 51.5709 49.1612 51.3887C48.8872 50.8898 48.3768 49.9607 49.1431 49.1917C49.8422 48.4939 50.8037 48.8751 51.4395 49.1271C51.62 49.2023 51.8042 49.2683 51.9914 49.3248C51.9348 49.1377 51.8688 48.9535 51.7936 48.773C51.5352 48.1372 51.1604 47.1757 51.8582 46.4766C52.5561 45.7775 53.5189 46.16 54.1547 46.412C54.3495 46.4946 54.5494 46.5649 54.753 46.6226C54.7223 46.3415 54.6695 46.0633 54.5954 45.7904C54.4157 45.0447 54.1146 43.7976 55.1846 43.3544C56.2547 42.9111 56.9241 44.0005 57.3247 44.6596C57.4651 44.9052 57.6245 45.1394 57.8016 45.36C57.9047 45.1751 57.9962 44.9839 58.0755 44.7876C58.3469 44.1595 58.7579 43.2109 59.7452 43.2109C60.7325 43.2109 61.1435 44.1595 61.4149 44.7876C61.4821 44.9413 61.579 45.1675 61.6656 45.3187C61.7579 45.1461 61.8411 44.9688 61.915 44.7876C62.1864 44.1595 62.5973 43.2109 63.5846 43.2109C64.6702 43.2109 64.9661 44.228 65.1238 44.7759C65.1819 44.9749 65.2892 45.3445 65.3822 45.4066C65.4624 45.4066 65.7015 45.2373 65.8449 45.1391C66.2752 44.8405 66.9963 44.343 67.8182 44.8237C68.7642 45.3794 68.4334 46.496 68.215 47.2352C68.1379 47.4774 68.0766 47.7243 68.0315 47.9744C68.23 47.9167 68.425 47.8476 68.6156 47.7676C69.2514 47.5092 70.2129 47.1331 70.912 47.8322C71.6112 48.5314 71.2299 49.4928 70.9766 50.1287C70.8948 50.3237 70.8249 50.5235 70.7673 50.727C71.0483 50.6955 71.3265 50.6428 71.5995 50.5693C72.3439 50.3897 73.5923 50.0886 74.0355 51.1586C74.4788 52.2287 73.3829 52.8981 72.729 53.2974C72.4842 53.439 72.2501 53.5983 72.0286 53.7743C72.2132 53.8784 72.4045 53.9703 72.6011 54.0495C73.2291 54.3209 74.179 54.7306 74.179 55.7192C74.179 56.7078 73.2291 57.1175 72.6011 57.3888C72.4473 57.4548 72.2224 57.553 72.0699 57.6383C72.2224 57.7248 72.4473 57.8231 72.6011 57.889C73.2291 58.1604 74.179 58.57 74.179 59.5586C74.179 60.6442 73.1606 60.9388 72.614 61.0978C72.4137 61.1559 72.0428 61.2632 71.9821 61.3562C71.964 61.4583 72.1514 61.7969 72.2509 61.9791C72.5261 62.4779 73.0366 63.4071 72.269 64.176C71.5698 64.8739 70.6096 64.4927 69.9738 64.2407C69.7929 64.1655 69.6083 64.0995 69.4207 64.0429C69.4672 64.2109 69.5577 64.4384 69.6197 64.5947C69.8782 65.2306 70.253 66.192 69.5538 66.8912C68.8547 67.5903 67.8945 67.2078 67.2587 66.9558C67.0634 66.8732 66.8631 66.8028 66.659 66.7452C66.6903 67.0263 66.7434 67.3045 66.818 67.5774C66.9976 68.3231 67.2987 69.5701 66.2287 70.0134C65.1587 70.4567 64.488 69.3672 64.0886 68.7082C63.9478 68.4628 63.7884 68.2287 63.6118 68.0077C63.5087 68.1929 63.4168 68.3841 63.3365 68.5802C63.0651 69.2109 62.6555 70.1594 61.6669 70.1594ZM59.7478 66.3924C60.7364 66.3924 61.1461 67.3409 61.4174 67.969C61.4834 68.1228 61.5816 68.3489 61.6669 68.5001C61.7592 68.3291 61.8428 68.1535 61.9176 67.9741C62.189 67.3461 62.5986 66.3975 63.5872 66.3975C64.3626 66.3975 64.8576 67.0333 65.2427 67.642C65.0837 66.939 64.9842 66.1429 65.5322 65.5911C66.23 64.8933 67.1915 65.2745 67.8286 65.5265C68.009 65.6019 68.1932 65.6679 68.3804 65.7242C68.3339 65.5562 68.2434 65.3288 68.1827 65.1724C67.9242 64.5366 67.5482 63.5751 68.2473 62.876C68.9464 62.1768 69.904 62.5542 70.5502 62.8049C70.6872 62.8592 70.8823 62.9341 71.0413 62.9858C70.9973 62.898 70.9456 62.8036 70.903 62.7274C70.6251 62.2221 70.2439 61.5294 70.5605 60.7656C70.8771 60.0019 71.6357 59.7822 72.1901 59.622C72.2728 59.5974 72.3762 59.5677 72.4693 59.5367C72.3219 59.4591 72.1307 59.3764 71.995 59.317C71.3656 59.0456 70.4171 58.6359 70.4171 57.6473C70.4171 56.6587 71.3656 56.2503 71.995 55.9789C72.1488 55.9117 72.3736 55.8148 72.5248 55.7282C72.3736 55.6416 72.1488 55.5447 71.995 55.4775C71.3656 55.2061 70.4171 54.7965 70.4171 53.8079C70.4171 53.0325 71.0529 52.5388 71.6629 52.1524C70.9586 52.3114 70.1625 52.4109 69.612 51.8629C68.9128 51.1651 69.2941 50.2036 69.5461 49.5678C69.6081 49.4114 69.6986 49.1801 69.7451 49.0147C69.5771 49.0612 69.3483 49.1517 69.192 49.2137C68.5562 49.4657 67.596 49.8469 66.8968 49.1491C66.2403 48.4926 66.5169 47.5583 66.7392 46.8061C66.7792 46.6704 66.8335 46.4856 66.8684 46.3228L66.7262 46.4197C66.3114 46.7053 65.6187 47.1861 64.7878 46.8423C64.024 46.5257 63.8043 45.7671 63.6428 45.2127C63.6195 45.1287 63.5885 45.0266 63.5588 44.9323C63.48 45.0796 63.3973 45.2722 63.3391 45.4079C63.0677 46.0359 62.6568 46.9858 61.6695 46.9858C60.6821 46.9858 60.2712 46.0359 59.9998 45.4079C59.9326 45.2541 59.8357 45.0279 59.7491 44.8767C59.657 45.0494 59.5738 45.2267 59.4997 45.4079C59.2283 46.0359 58.8173 46.9858 57.83 46.9858C57.0546 46.9858 56.5597 46.3487 56.1746 45.74C56.3322 46.443 56.433 47.2391 55.8851 47.7909C55.1859 48.4887 54.2245 48.1075 53.5886 47.8555C53.4082 47.7803 53.224 47.7143 53.0368 47.6578C53.0934 47.8449 53.1594 48.0291 53.2346 48.2096C53.493 48.8454 53.8678 49.8069 53.1699 50.506C52.4721 51.2052 51.5093 50.8226 50.8735 50.5706C50.7365 50.5164 50.5414 50.4414 50.3824 50.3897C50.4264 50.4776 50.4781 50.5719 50.5207 50.6482C50.7986 51.1535 51.1798 51.8461 50.8632 52.6099C50.5466 53.3736 49.7867 53.5946 49.2271 53.7588C49.1444 53.7833 49.041 53.813 48.948 53.844C49.0953 53.9216 49.2866 54.0043 49.4223 54.0637C50.0503 54.3351 51.0002 54.7448 51.0002 55.7334C51.0002 56.722 50.0503 57.1304 49.4223 57.4018C49.2685 57.469 49.0436 57.5659 48.8924 57.6525C49.0436 57.7391 49.2685 57.836 49.4223 57.9032C50.0503 58.1746 51.0002 58.5842 51.0002 59.5728C51.0002 60.3482 50.3643 60.8419 49.7544 61.2283C50.4574 61.0693 51.2535 60.9698 51.8053 61.5178C52.5044 62.2156 52.1232 63.1771 51.8699 63.8129C51.8091 63.9693 51.7187 64.2006 51.6722 64.366C51.8402 64.3195 52.0689 64.229 52.224 64.167C52.8598 63.9085 53.8213 63.5338 54.5204 64.2329C55.2195 64.932 54.8383 65.8922 54.585 66.528C54.5307 66.6663 54.4558 66.8602 54.4054 67.0191C54.4933 66.9752 54.5876 66.9235 54.6638 66.8821C55.1691 66.6043 55.8618 66.2231 56.6256 66.5397C57.3893 66.8563 57.609 67.6149 57.7693 68.168C57.7938 68.252 57.8235 68.3554 57.8546 68.4484C57.9334 68.3011 58.0161 68.1085 58.0743 67.9728C58.3495 67.3409 58.7592 66.3924 59.7478 66.3924Z" fill="#8A1538"/>
<path d="M60.7078 65.1147C59.0408 65.1147 57.4112 64.6203 56.0251 63.6941C54.639 62.768 53.5587 61.4515 52.9208 59.9114C52.2829 58.3712 52.1161 56.6765 52.4414 55.0415C52.7667 53.4065 53.5696 51.9047 54.7484 50.726C55.9273 49.5473 57.4292 48.7447 59.0643 48.4196C60.6993 48.0945 62.394 48.2616 63.9341 48.8998C65.4742 49.5379 66.7904 50.6184 67.7164 52.0046C68.6424 53.3908 69.1365 55.0205 69.1362 56.6875C69.1335 58.9219 68.2446 61.064 66.6645 62.6439C65.0844 64.2237 62.9422 65.1123 60.7078 65.1147ZM60.7078 49.8047C59.3464 49.8045 58.0156 50.2079 56.8835 50.964C55.7515 51.7202 54.8691 52.795 54.348 54.0527C53.8268 55.3103 53.6903 56.6943 53.9558 58.0295C54.2212 59.3647 54.8766 60.5913 55.8391 61.554C56.8017 62.5167 58.0281 63.1723 59.3632 63.438C60.6984 63.7037 62.0824 63.5675 63.3401 63.0466C64.5979 62.5257 65.6729 61.6435 66.4293 60.5116C67.1856 59.3797 67.5893 58.0489 67.5893 56.6875C67.5876 54.8628 66.8621 53.1134 65.572 51.823C64.2818 50.5326 62.5325 49.8068 60.7078 49.8047Z" fill="#8A1538"/>
<path d="M53.8458 83.9962C53.6973 83.9959 53.552 83.9531 53.4271 83.8727C53.3023 83.7923 53.2031 83.6777 53.1415 83.5426L50.8593 78.5245L45.7301 80.5483C45.5896 80.6025 45.4363 80.6146 45.2891 80.5831C45.1418 80.5516 45.0069 80.4779 44.9008 80.371C44.7947 80.2641 44.722 80.1286 44.6917 79.9811C44.6613 79.8335 44.6746 79.6804 44.7299 79.5403L50.6616 64.8597C50.7486 64.6848 50.8984 64.5492 51.081 64.48C51.2637 64.4108 51.4657 64.4131 51.6468 64.4864C51.8278 64.5597 51.9745 64.6986 52.0576 64.8754C52.1406 65.0522 52.1539 65.2538 52.0947 65.4399L46.8376 78.4496L50.973 76.8161C51.1576 76.7436 51.363 76.7446 51.5468 76.8189C51.7307 76.8932 51.8792 77.0351 51.9616 77.2154L53.8019 81.2642L59.519 67.116C59.551 67.0138 59.6038 66.9193 59.6741 66.8385C59.7444 66.7577 59.8307 66.6923 59.9275 66.6465C60.0243 66.6007 60.1296 66.5754 60.2366 66.5723C60.3437 66.5692 60.4502 66.5883 60.5495 66.6284C60.6488 66.6686 60.7388 66.7288 60.8136 66.8054C60.8885 66.882 60.9467 66.9733 60.9845 67.0735C61.0223 67.1737 61.039 67.2807 61.0334 67.3876C61.0279 67.4946 61.0002 67.5993 60.9522 67.695L54.5618 83.5128C54.5048 83.6529 54.4082 83.7733 54.2838 83.8592C54.1593 83.9451 54.0125 83.9927 53.8613 83.9962H53.8458Z" fill="#8A1538"/>
<path d="M67.5785 84.002H67.5617C67.4106 83.9985 67.2637 83.9509 67.1393 83.8651C67.0148 83.7792 66.9182 83.6588 66.8613 83.5187L61.2346 69.6057C61.1866 69.51 61.1589 69.4053 61.1533 69.2984C61.1478 69.1914 61.1644 69.0845 61.2023 68.9842C61.2401 68.884 61.2983 68.7928 61.3732 68.7162C61.448 68.6396 61.5379 68.5793 61.6373 68.5392C61.7366 68.4991 61.8431 68.48 61.9502 68.4831C62.0572 68.4862 62.1625 68.5114 62.2593 68.5572C62.3561 68.603 62.4424 68.6684 62.5127 68.7492C62.583 68.83 62.6358 68.9245 62.6678 69.0268L67.6147 81.2701L69.4562 77.2213C69.5387 77.0413 69.6869 76.8996 69.8705 76.8253C70.0541 76.7511 70.2591 76.7499 70.4436 76.822L74.5789 78.4555L68.5529 63.5371C68.5049 63.4413 68.4772 63.3367 68.4717 63.2297C68.4661 63.1227 68.4828 63.0158 68.5206 62.9156C68.5584 62.8154 68.6166 62.7241 68.6915 62.6475C68.7664 62.5709 68.8563 62.5106 68.9556 62.4705C69.0549 62.4304 69.1614 62.4113 69.2685 62.4144C69.3756 62.4175 69.4808 62.4428 69.5777 62.4886C69.6745 62.5344 69.7607 62.5997 69.831 62.6806C69.9013 62.7614 69.9541 62.8559 69.9861 62.9581L76.6893 79.5462C76.7446 79.6863 76.7578 79.8394 76.7275 79.9869C76.6971 80.1345 76.6245 80.2699 76.5184 80.3769C76.4123 80.4838 76.2774 80.5575 76.1301 80.5889C75.9828 80.6204 75.8296 80.6083 75.689 80.5542L70.5599 78.5304L68.2764 83.5484C68.2152 83.6826 68.1171 83.7965 67.9935 83.8768C67.8699 83.9571 67.7259 84.0006 67.5785 84.002Z" fill="#8A1538"/>
</svg>
