<svg width="68" height="62" viewBox="0 0 68 62" fill="none" xmlns="http://www.w3.org/2000/svg">
<path fill-rule="evenodd" clip-rule="evenodd" d="M66.1739 30.4141C65.7483 30.4141 65.3402 30.5831 65.0393 30.884C64.7384 31.1849 64.5694 31.593 64.5694 32.0185V51.4196C64.575 52.3408 64.3983 53.254 64.0497 54.1067C63.701 54.9594 63.1872 55.7347 62.5377 56.388C61.8883 57.0414 61.1161 57.5599 60.2655 57.9137C59.415 58.2675 58.5028 58.4496 57.5816 58.4496H10.4194C8.56614 58.4496 6.78877 57.7134 5.47831 56.4029C4.16784 55.0925 3.43163 53.3151 3.43163 51.4618V32.0185C3.43163 31.593 3.26259 31.1849 2.9617 30.884C2.66081 30.5831 2.25271 30.4141 1.82719 30.4141C1.40166 30.4141 0.993567 30.5831 0.692675 30.884C0.391783 31.1849 0.222744 31.593 0.222744 32.0185V51.4196C0.217158 52.7602 0.47709 54.0887 0.987542 55.3283C1.49799 56.5679 2.24886 57.6942 3.19682 58.6422C4.14479 59.5902 5.27108 60.341 6.51072 60.8515C7.75036 61.3619 9.0788 61.6219 10.4194 61.6163H57.5816C58.9222 61.6219 60.2507 61.3619 61.4903 60.8515C62.73 60.341 63.8563 59.5902 64.8042 58.6422C65.7522 57.6942 66.5031 56.5679 67.0135 55.3283C67.524 54.0887 67.7839 52.7602 67.7783 51.4196V32.0185C67.7783 31.593 67.6093 31.1849 67.3084 30.884C67.0075 30.5831 66.5994 30.4141 66.1739 30.4141Z" fill="#8A1538"/>
<path fill-rule="evenodd" clip-rule="evenodd" d="M64.8016 14.1128C62.8802 12.2096 60.2861 11.1402 57.5816 11.1362H50.1505L47.8494 4.38062C47.4502 3.2189 46.6989 2.21041 45.7001 1.49534C44.7013 0.780264 43.5045 0.394136 42.2761 0.390625H25.725C24.4966 0.394136 23.2998 0.780264 22.3009 1.49534C21.3021 2.21041 20.5509 3.2189 20.1516 4.38062L17.8505 11.1151H10.4194C9.08058 11.1095 7.75387 11.3687 6.51561 11.8779C5.27736 12.387 4.15201 13.136 3.20433 14.0817C2.25665 15.0274 1.50534 16.1512 0.993637 17.3884C0.481936 18.6256 0.219944 19.9518 0.222739 21.2906V23.4017C0.241853 23.7736 0.366324 24.1324 0.581628 24.4362L1.42607 25.4917C3.99198 28.6869 7.24084 31.2668 10.9342 33.0423C14.6275 34.8177 18.6715 35.7435 22.7694 35.7517H32.3961V38.4328C32.3961 38.8584 32.5651 39.2665 32.866 39.5674C33.1669 39.8683 33.575 40.0373 34.0005 40.0373C34.426 40.0373 34.8341 39.8683 35.135 39.5674C35.4359 39.2665 35.605 38.8584 35.605 38.4328V35.7729H45.2316C49.3295 35.7646 53.3736 34.8388 57.0669 33.0634C60.7602 31.288 64.0091 28.708 66.575 25.5128L67.4194 24.4573C67.5542 24.3176 67.6592 24.152 67.7281 23.9706C67.7971 23.7892 67.8285 23.5957 67.8205 23.4017V21.2906C67.7988 18.5938 66.714 16.0145 64.8016 14.1128ZM23.1916 5.41507C23.3676 4.88001 23.7064 4.41331 24.1606 4.08022C24.6148 3.74713 25.1617 3.5643 25.725 3.55729H42.2761C42.8341 3.56128 43.3773 3.73795 43.8309 4.06303C44.2845 4.38812 44.6263 4.84567 44.8094 5.37285L46.6672 11.1151H21.3339L23.1916 5.41507ZM64.0627 23.5073C61.8033 26.3317 58.9379 28.6121 55.6784 30.1797C52.4188 31.7474 48.8486 32.5622 45.2316 32.564H35.605V29.8828C35.605 29.4573 35.4359 29.0492 35.135 28.7483C34.8341 28.4474 34.426 28.2784 34.0005 28.2784C33.575 28.2784 33.1669 28.4474 32.866 28.7483C32.5651 29.0492 32.3961 29.4573 32.3961 29.8828V32.564H22.7694C19.1525 32.5622 15.5822 31.7474 12.3227 30.1797C9.06312 28.6121 6.19769 26.3317 3.9383 23.5073L3.43163 22.874V21.2906C3.43722 19.441 4.17589 17.6691 5.48575 16.3632C6.79561 15.0573 8.56978 14.324 10.4194 14.324H57.5816C59.4313 14.324 61.2054 15.0573 62.5153 16.3632C63.8251 17.6691 64.5638 19.441 64.5694 21.2906V22.874L64.0627 23.5073Z" fill="#8A1538"/>
</svg>
