<svg width="66" height="67" viewBox="0 0 66 67" fill="none" xmlns="http://www.w3.org/2000/svg">
<g clip-path="url(#clip0_2960_3892)">
<path d="M59.8444 25.8299H50.5632C51.8863 23.0438 52.5899 20.004 52.6257 16.9199C52.6257 13.6379 51.3219 10.4902 49.0011 8.16948C46.6803 5.84871 43.5327 4.54492 40.2507 4.54492C36.9686 4.54492 33.821 5.84871 31.5002 8.16948C29.1795 10.4902 27.8757 13.6379 27.8757 16.9199C27.9114 20.004 28.615 23.0438 29.9382 25.8299H20.6569C19.9728 25.8298 19.2955 25.9659 18.6645 26.2302C18.0334 26.4944 17.4613 26.8816 16.9814 27.3692C16.5015 27.8568 16.1234 28.435 15.8692 29.0701C15.615 29.7053 15.4897 30.3846 15.5007 31.0687L17.5632 56.8499C17.5839 57.1089 17.7017 57.3505 17.8929 57.5264C18.0841 57.7023 18.3346 57.7995 18.5944 57.7987H61.9069C62.1667 57.7995 62.4172 57.7023 62.6084 57.5264C62.7996 57.3505 62.9174 57.1089 62.9382 56.8499L65.0007 30.9862C65.0007 29.6187 64.4574 28.3071 63.4904 27.3402C62.5234 26.3732 61.2119 25.8299 59.8444 25.8299ZM40.2507 6.60742C42.9857 6.60742 45.6087 7.69391 47.5427 9.62788C49.4767 11.5619 50.5632 14.1849 50.5632 16.9199C50.5587 17.9577 50.462 18.993 50.2744 20.0137C43.2 19.8074 41.2819 12.8568 41.2819 12.5474C41.2643 12.5048 41.2436 12.4634 41.22 12.4237C41.1954 12.3588 41.1643 12.2966 41.1272 12.238C41.0448 12.1354 40.9514 12.0421 40.8488 11.9596C40.7841 11.9176 40.7149 11.883 40.6425 11.8565L40.5291 11.8049C40.4537 11.7966 40.3776 11.7966 40.3022 11.8049H40.065C40.0151 11.8252 39.9668 11.8493 39.9207 11.8771L39.7453 11.9596C39.6425 12.0419 39.5492 12.1352 39.4669 12.238C39.4292 12.2999 39.3981 12.3656 39.3741 12.434C39.3506 12.4737 39.3299 12.5151 39.3122 12.5577C39.24 12.8568 37.3632 19.7765 30.2888 20.0137C30.1012 18.993 30.0045 17.9577 30 16.9199C30 14.1956 31.078 11.5819 32.9986 9.64967C34.9192 7.71747 37.5264 6.62377 40.2507 6.60742ZM30.7116 22.0762C32.744 21.9401 34.7023 21.2593 36.3807 20.1052C38.0592 18.9511 39.396 17.3664 40.2507 15.5174C41.1096 17.3606 42.4482 18.939 44.1264 20.0874C45.8046 21.2358 47.7606 21.912 49.7897 22.0452C49.4069 23.3571 48.8885 24.6255 48.2428 25.8299H32.2585C31.6122 24.6222 31.0937 23.3503 30.7116 22.0349V22.0762ZM60.9582 55.7362H19.5432L17.5632 30.9862C17.5632 30.1657 17.8891 29.3788 18.4693 28.7986C19.0495 28.2184 19.8364 27.8924 20.6569 27.8924H59.8444C60.6508 27.8921 61.4255 28.2067 62.0034 28.7692C62.5812 29.3317 62.9167 30.0975 62.9382 30.9037L60.9582 55.7362Z" fill="#3E6C5F"/>
<path d="M40.25 36.1426C39.2302 36.1426 38.2333 36.445 37.3853 37.0116C36.5374 37.5781 35.8765 38.3834 35.4862 39.3256C35.096 40.2678 34.9939 41.3045 35.1928 42.3048C35.3918 43.305 35.8829 44.2237 36.604 44.9448C37.3251 45.666 38.2439 46.157 39.2441 46.356C40.2443 46.555 41.281 46.4528 42.2232 46.0626C43.1654 45.6723 43.9707 45.0114 44.5373 44.1635C45.1038 43.3155 45.4063 42.3186 45.4063 41.2988C45.4063 39.9313 44.863 38.6198 43.896 37.6528C42.929 36.6858 41.6175 36.1426 40.25 36.1426ZM40.25 44.3926C39.6381 44.3926 39.04 44.2111 38.5312 43.8712C38.0224 43.5312 37.6259 43.0481 37.3918 42.4828C37.1576 41.9174 37.0963 41.2954 37.2157 40.6953C37.3351 40.0951 37.6297 39.5439 38.0624 39.1112C38.4951 38.6785 39.0463 38.3839 39.6464 38.2645C40.2466 38.1452 40.8686 38.2064 41.4339 38.4406C41.9992 38.6747 42.4824 39.0713 42.8224 39.58C43.1623 40.0888 43.3438 40.6869 43.3438 41.2988C43.3438 42.1193 43.0178 42.9062 42.4376 43.4864C41.8574 44.0666 41.0705 44.3926 40.25 44.3926Z" fill="#3E6C5F"/>
<path d="M7.95125 22.7363L11.7875 25.6238C11.9407 25.7387 12.1229 25.8087 12.3136 25.8259C12.5044 25.8431 12.6961 25.8069 12.8674 25.7212C13.0387 25.6356 13.1828 25.5039 13.2835 25.341C13.3842 25.1781 13.4375 24.9903 13.4375 24.7988V22.7363H14.4172C15.2377 22.7363 16.0246 22.4104 16.6048 21.8302C17.185 21.25 17.5109 20.4631 17.5109 19.6426V18.6113H21.6359C22.4565 18.6113 23.2434 18.2854 23.8236 17.7052C24.4037 17.125 24.7297 16.3381 24.7297 15.5176V11.3926C24.7297 10.5721 24.4037 9.78516 23.8236 9.20497C23.2434 8.62478 22.4565 8.29883 21.6359 8.29883H9.37438C8.55386 8.29883 7.76696 8.62478 7.18676 9.20497C6.60657 9.78516 6.28063 10.5721 6.28063 11.3926V12.4238H2.09375C1.27324 12.4238 0.486329 12.7498 -0.0938615 13.33C-0.674052 13.9102 -1 14.6971 -1 15.5176L-1 19.6426C-1 20.4631 -0.674052 21.25 -0.0938615 21.8302C0.486329 22.4104 1.27324 22.7363 2.09375 22.7363H7.95125ZM8.28125 11.3926C8.28125 11.1191 8.3899 10.8568 8.5833 10.6634C8.77669 10.47 9.039 10.3613 9.3125 10.3613H21.6875C21.961 10.3613 22.2233 10.47 22.4167 10.6634C22.6101 10.8568 22.7188 11.1191 22.7188 11.3926V15.5176C22.7188 15.7911 22.6101 16.0534 22.4167 16.2468C22.2233 16.4402 21.961 16.5488 21.6875 16.5488H9.37438C9.10087 16.5488 8.83857 16.4402 8.64517 16.2468C8.45177 16.0534 8.34313 15.7911 8.34313 15.5176L8.28125 11.3926ZM1.0625 19.6426V15.5176C1.0625 15.2441 1.17115 14.9818 1.36455 14.7884C1.55794 14.595 1.82025 14.4863 2.09375 14.4863H6.21875V15.5176C6.21875 16.3381 6.5447 17.125 7.12489 17.7052C7.70508 18.2854 8.49199 18.6113 9.3125 18.6113H15.5V19.6426C15.5 19.9161 15.3914 20.1784 15.198 20.3718C15.0046 20.5652 14.7423 20.6738 14.4688 20.6738H12.4063C12.1327 20.6738 11.8704 20.7825 11.677 20.9759C11.4837 21.1693 11.375 21.4316 11.375 21.7051V22.7363L8.92063 20.8801C8.7365 20.7419 8.51142 20.6693 8.28125 20.6738H2.09375C1.82025 20.6738 1.55794 20.5652 1.36455 20.3718C1.17115 20.1784 1.0625 19.9161 1.0625 19.6426Z" fill="#3E6C5F"/>
<path d="M19.6484 14.4863C20.218 14.4863 20.6797 14.0246 20.6797 13.4551C20.6797 12.8855 20.218 12.4238 19.6484 12.4238C19.0789 12.4238 18.6172 12.8855 18.6172 13.4551C18.6172 14.0246 19.0789 14.4863 19.6484 14.4863Z" fill="#3E6C5F"/>
<path d="M15.5313 14.4863C16.1008 14.4863 16.5625 14.0246 16.5625 13.4551C16.5625 12.8855 16.1008 12.4238 15.5313 12.4238C14.9617 12.4238 14.5 12.8855 14.5 13.4551C14.5 14.0246 14.9617 14.4863 15.5313 14.4863Z" fill="#3E6C5F"/>
<path d="M11.4258 14.4863C11.9953 14.4863 12.457 14.0246 12.457 13.4551C12.457 12.8855 11.9953 12.4238 11.4258 12.4238C10.8562 12.4238 10.3945 12.8855 10.3945 13.4551C10.3945 14.0246 10.8562 14.4863 11.4258 14.4863Z" fill="#3E6C5F"/>
<path d="M4.1875 18.6113C4.75704 18.6113 5.21875 18.1496 5.21875 17.5801C5.21875 17.0105 4.75704 16.5488 4.1875 16.5488C3.61796 16.5488 3.15625 17.0105 3.15625 17.5801C3.15625 18.1496 3.61796 18.6113 4.1875 18.6113Z" fill="#3E6C5F"/>
<path d="M8.28125 48.5176C2.56813 48.5176 1.0625 53.911 1.0625 56.7676C1.0625 57.0411 1.17115 57.3034 1.36455 57.4968C1.55794 57.6902 1.82025 57.7988 2.09375 57.7988H14.4688C14.7423 57.7988 15.0046 57.6902 15.198 57.4968C15.3914 57.3034 15.5 57.0411 15.5 56.7676C15.5 53.911 13.9944 48.5176 8.28125 48.5176ZM3.2075 55.7363C3.43437 54.1379 4.23875 51.2298 7.25 50.6832V52.6426C7.25 52.9161 7.35865 53.1784 7.55205 53.3718C7.74544 53.5652 8.00775 53.6738 8.28125 53.6738C8.55475 53.6738 8.81706 53.5652 9.01045 53.3718C9.20385 53.1784 9.3125 52.9161 9.3125 52.6426V50.6832C12.2928 51.2401 13.1178 54.1482 13.355 55.7363H3.2075Z" fill="#3E6C5F"/>
</g>
<defs>
<clipPath id="clip0_2960_3892">
<rect width="66" height="66" fill="white" transform="translate(0 0.0488281)"/>
</clipPath>
</defs>
</svg>
