<svg width="23" height="23" viewBox="0 0 23 23" fill="none" xmlns="http://www.w3.org/2000/svg">
<path d="M12.3715 5.82632C13.5713 6.02742 14.6613 6.59414 15.5315 7.4625C16.4016 8.33087 16.9649 9.41861 17.171 10.616M12.5547 1.90039C14.6888 2.26145 16.6352 3.27149 18.1831 4.8117C19.7311 6.35647 20.7386 8.29887 21.1004 10.4286M19.4333 18.9021C19.4333 18.9021 18.2747 20.0401 17.9907 20.3737C17.5282 20.8673 16.9832 21.1004 16.2688 21.1004C16.2001 21.1004 16.1268 21.1004 16.0581 21.0958C14.6979 21.009 13.4339 20.4788 12.4859 20.0264C9.89383 18.7741 7.61773 16.9962 5.72631 14.743C4.16463 12.8646 3.12046 11.1279 2.42893 9.26321C2.00302 8.12519 1.84731 7.23854 1.916 6.40217C1.9618 5.86744 2.16789 5.42412 2.548 5.04478L4.10968 3.4863C4.33408 3.27606 4.57223 3.1618 4.80579 3.1618C5.09431 3.1618 5.32788 3.33547 5.47443 3.48173C5.47901 3.4863 5.48359 3.49087 5.48817 3.49544C5.76753 3.75595 6.03315 4.0256 6.31251 4.31353C6.45448 4.45978 6.60103 4.60603 6.74758 4.75685L7.99784 6.00455C8.48329 6.48901 8.48329 6.9369 7.99784 7.42136C7.86503 7.5539 7.7368 7.68644 7.60399 7.81441C7.21929 8.20746 7.52149 7.90587 7.12306 8.26236C7.1139 8.2715 7.10474 8.27607 7.10016 8.28521C6.7063 8.67826 6.77958 9.06217 6.86201 9.32268C6.86659 9.33639 6.87117 9.3501 6.87575 9.36381C7.20091 10.1499 7.65888 10.8903 8.355 11.7724L8.35958 11.777C9.62357 13.3309 10.9563 14.542 12.4263 15.4698C12.6141 15.5886 12.8065 15.6846 12.9896 15.776C13.1545 15.8583 13.3102 15.936 13.443 16.0182C13.4614 16.0274 13.4797 16.0411 13.498 16.0502C13.6537 16.1279 13.8003 16.1645 13.9514 16.1645C14.3315 16.1645 14.5696 15.9268 14.6475 15.8491L15.5452 14.9533C15.7009 14.7979 15.9482 14.6105 16.2367 14.6105C16.5207 14.6105 16.7542 14.7887 16.8962 14.9441C16.9008 14.9487 16.9008 14.9487 16.9054 14.9533L19.4288 17.4715C19.9005 17.9377 19.4333 18.9021 19.4333 18.9021Z" stroke="#0C0C0C" stroke-width="2" stroke-linecap="round" stroke-linejoin="round"/>
</svg>
