<svg xmlns="http://www.w3.org/2000/svg" width="20.81" height="26.586" viewBox="0 0 20.81 26.586"><path d="M119.537,111.282a7.517,7.517,0,1,0,6.738,7.477,7.6,7.6,0,0,0-6.738-7.477Zm0,13.384V112.851a5.959,5.959,0,0,1,0,11.816Zm0,0" transform="translate(-105.466 -105.466)" fill="#fff"/><path d="M241.779,4.65a.779.779,0,0,0,.779-.779V.779a.779.779,0,1,0-1.558,0V3.871A.779.779,0,0,0,241.779,4.65Zm0,0" transform="translate(-228.486)" fill="#fff"/><path d="M241.779,422.457a.779.779,0,0,0-.779.779v3.092a.779.779,0,0,0,1.558,0v-3.092A.779.779,0,0,0,241.779,422.457Zm0,0" transform="translate(-228.486 -400.521)" fill="#fff"/><path d="M4.65,241.779A.779.779,0,0,0,3.871,241H.779a.779.779,0,1,0,0,1.558H3.871A.779.779,0,0,0,4.65,241.779Zm0,0" transform="translate(0 -228.486)" fill="#fff"/><path d="M68.28,69.382a.779.779,0,0,0,1.1-1.1l-2.248-2.248a.779.779,0,0,0-1.1,1.1Zm0,0" transform="translate(-62.387 -62.387)" fill="#fff"/><path d="M68.283,373.139l-2.248,2.248a.779.779,0,1,0,1.1,1.1l2.248-2.248a.779.779,0,0,0-1.1-1.1Zm0,0" transform="translate(-62.39 -353.547)" fill="#fff"/></svg>