<svg width="17" height="20" viewBox="0 0 17 20" fill="none" xmlns="http://www.w3.org/2000/svg">
<g clip-path="url(#clip0_2001_2866)">
<path d="M5.33193 19.5624C5.23193 19.5294 5.13193 19.5004 5.03193 19.4624C4.8008 19.3838 4.6064 19.2234 4.48538 19.0113C4.36435 18.7993 4.32507 18.5504 4.37493 18.3114C4.74793 16.2354 5.14393 14.1624 5.49793 12.0824C5.67193 11.0594 5.80493 10.0264 5.89793 8.99237C5.96493 8.24337 5.80893 8.08137 5.09793 7.85737C4.01593 7.51937 2.92993 7.19437 1.85393 6.83837C1.52268 6.73133 1.20948 6.5749 0.924929 6.37437C0.778138 6.24718 0.664415 6.08626 0.593525 5.90543C0.522635 5.7246 0.496698 5.52926 0.517942 5.3362C0.539186 5.14314 0.606975 4.95812 0.715488 4.79703C0.824001 4.63594 0.969994 4.5036 1.14093 4.41137C1.35124 4.31678 1.59012 4.30781 1.80693 4.38637C3.41398 4.8735 5.05665 5.23427 6.71993 5.46537C8.03003 5.63426 9.35799 5.60662 10.6599 5.38337C12.1356 5.14215 13.5951 4.81018 15.0299 4.38937C15.2318 4.31353 15.4545 4.31497 15.6554 4.39342C15.8562 4.47188 16.0209 4.6218 16.1179 4.81437C16.224 4.9493 16.2976 5.10679 16.3331 5.2747C16.3687 5.4426 16.3651 5.61642 16.3228 5.78274C16.2805 5.94906 16.2005 6.10343 16.089 6.23392C15.9775 6.36442 15.8376 6.46756 15.6799 6.53537C15.2804 6.72654 14.8689 6.89155 14.4479 7.02937C13.5419 7.35437 12.6279 7.65537 11.7239 7.98637C10.9319 8.27637 10.8409 8.39537 10.9189 9.27437C11.0869 11.1744 11.4789 13.0454 11.8289 14.9204C12.0369 16.0354 12.2489 17.1494 12.4519 18.2654C12.4832 18.3989 12.4875 18.5374 12.4647 18.6726C12.4418 18.8078 12.3923 18.9372 12.3189 19.0531C12.2456 19.169 12.1499 19.2691 12.0374 19.3476C11.925 19.4261 11.798 19.4814 11.6639 19.5104C11.6109 19.5254 11.5579 19.5454 11.5059 19.5624H11.0059C10.7489 19.4891 10.5199 19.3399 10.349 19.1344C10.178 18.9288 10.0731 18.6765 10.0479 18.4104C9.98493 18.1104 9.93593 17.7994 9.86693 17.4974C9.55193 16.1274 9.23893 14.7574 8.90793 13.3924C8.82612 13.0933 8.71456 12.8032 8.57493 12.5264C8.46393 12.2914 8.35393 12.3004 8.22293 12.5264C8.17809 12.603 8.14059 12.6837 8.11093 12.7674C7.99458 13.0688 7.89444 13.3762 7.81093 13.6884C7.4716 15.2084 7.14126 16.7304 6.81993 18.2544C6.69393 18.8544 6.48993 19.3754 5.82893 19.5544L5.33193 19.5624Z" fill="white"/>
<path d="M8.6828 0.0683594C8.90194 0.125334 9.11735 0.195802 9.3278 0.279359C9.78469 0.497952 10.1484 0.872615 10.3534 1.33577C10.5584 1.79892 10.5911 2.32008 10.4457 2.80524C10.3002 3.2904 9.98622 3.70762 9.56027 3.98164C9.13432 4.25567 8.62446 4.36846 8.12267 4.29968C7.62087 4.2309 7.16017 3.98507 6.82367 3.60653C6.48716 3.22799 6.297 2.74167 6.28748 2.23527C6.27797 1.72887 6.44972 1.23574 6.77177 0.84483C7.09381 0.453915 7.54495 0.190947 8.0438 0.103359C8.08 0.0945047 8.11545 0.0828016 8.1498 0.0683594L8.6828 0.0683594Z" fill="white"/>
</g>
<defs>
<clipPath id="clip0_2001_2866">
<rect width="15.841" height="19.494" fill="white" transform="translate(0.501953 0.0683594)"/>
</clipPath>
</defs>
</svg>
