<svg width="25" height="25" viewBox="0 0 25 25" fill="none" xmlns="http://www.w3.org/2000/svg">
<path d="M13.3715 7.29263C14.5713 7.49373 15.6613 8.06045 16.5315 8.92881C17.4016 9.79718 17.9649 10.8849 18.171 12.0823M13.5547 3.3667C15.6888 3.72776 17.6352 4.7378 19.1831 6.27801C20.7311 7.82278 21.7386 9.76518 22.1004 11.895M20.4333 20.3684C20.4333 20.3684 19.2747 21.5064 18.9907 21.84C18.5282 22.3336 17.9832 22.5667 17.2688 22.5667C17.2001 22.5667 17.1268 22.5667 17.0581 22.5621C15.6979 22.4753 14.4339 21.9451 13.4859 21.4927C10.8938 20.2404 8.61773 18.4625 6.72631 16.2094C5.16463 14.3309 4.12046 12.5942 3.42893 10.7295C3.00302 9.5915 2.84731 8.70485 2.916 7.86848C2.9618 7.33375 3.16789 6.89043 3.548 6.51109L5.10968 4.9526C5.33408 4.74237 5.57223 4.62811 5.80579 4.62811C6.09431 4.62811 6.32788 4.80178 6.47443 4.94803C6.47901 4.9526 6.48359 4.95718 6.48817 4.96175C6.76753 5.22225 7.03315 5.4919 7.31251 5.77984C7.45448 5.92609 7.60103 6.07234 7.74758 6.22316L8.99784 7.47086C9.48329 7.95532 9.48329 8.40321 8.99784 8.88767C8.86503 9.02021 8.7368 9.15275 8.60399 9.28072C8.21929 9.67376 8.52149 9.37218 8.12306 9.72867C8.1139 9.73781 8.10474 9.74238 8.10016 9.75152C7.7063 10.1446 7.77958 10.5285 7.86201 10.789C7.86659 10.8027 7.87117 10.8164 7.87575 10.8301C8.20091 11.6162 8.65888 12.3566 9.355 13.2387L9.35958 13.2433C10.6236 14.7972 11.9563 16.0083 13.4263 16.9361C13.6141 17.0549 13.8065 17.1509 13.9896 17.2423C14.1545 17.3246 14.3102 17.4023 14.443 17.4845C14.4614 17.4937 14.4797 17.5074 14.498 17.5165C14.6537 17.5942 14.8003 17.6308 14.9514 17.6308C15.3315 17.6308 15.5696 17.3931 15.6475 17.3154L16.5452 16.4196C16.7009 16.2642 16.9482 16.0768 17.2367 16.0768C17.5207 16.0768 17.7542 16.2551 17.8962 16.4104C17.9008 16.415 17.9008 16.415 17.9054 16.4196L20.4288 18.9378C20.9005 19.404 20.4333 20.3684 20.4333 20.3684Z" stroke="white" stroke-linecap="round" stroke-linejoin="round"/>
</svg>
