<svg width="25" height="25" viewBox="0 0 25 25" fill="none" xmlns="http://www.w3.org/2000/svg">
<path d="M12.068 7.80671C11.7144 7.38244 11.0839 7.32511 10.6596 7.67868C10.2353 8.03224 10.178 8.66281 10.5316 9.08708L12.068 7.80671ZM14.8354 12.6896L15.6036 13.3298C15.9126 12.9589 15.9126 12.4202 15.6036 12.0494L14.8354 12.6896ZM10.5316 16.2921C10.178 16.7163 10.2353 17.3469 10.6596 17.7005C11.0839 18.054 11.7144 17.9967 12.068 17.5724L10.5316 16.2921ZM10.5316 9.08708L14.0671 13.3298L15.6036 12.0494L12.068 7.80671L10.5316 9.08708ZM14.0671 12.0494L10.5316 16.2921L12.068 17.5724L15.6036 13.3298L14.0671 12.0494ZM12.5004 4.30237C17.25 4.30237 21.1004 8.15272 21.1004 12.9024H23.1004C23.1004 7.04815 18.3546 2.30237 12.5004 2.30237V4.30237ZM21.1004 12.9024C21.1004 17.652 17.25 21.5024 12.5004 21.5024V23.5024C18.3546 23.5024 23.1004 18.7566 23.1004 12.9024H21.1004ZM12.5004 21.5024C7.75074 21.5024 3.90039 17.652 3.90039 12.9024H1.90039C1.90039 18.7566 6.64617 23.5024 12.5004 23.5024V21.5024ZM3.90039 12.9024C3.90039 8.15272 7.75074 4.30237 12.5004 4.30237V2.30237C6.64617 2.30237 1.90039 7.04815 1.90039 12.9024H3.90039Z" fill="#8A1538"/>
</svg>
