<svg width="15" height="127" viewBox="0 0 15 127" fill="none" xmlns="http://www.w3.org/2000/svg">
<path d="M14.1209 84.1641C14.1209 85.7641 13.7209 87.2641 12.9009 88.4841L11.3009 87.9841C12.2209 86.8041 12.6009 85.0041 12.6009 83.8241C12.6009 83.1241 12.4809 82.2841 12.3409 81.8441C12.0209 81.3041 11.3609 80.8441 10.5809 80.8441C7.44086 80.8441 9.36086 88.2241 4.80086 88.2241C2.48086 88.2241 1.04086 86.2841 1.04086 83.5641C1.04086 82.3641 1.32086 80.7841 2.28086 79.7041L3.80086 80.1841C2.98086 81.2441 2.56086 82.7041 2.56086 84.0441C2.56086 84.9241 2.76086 85.4641 2.98086 85.8841C3.30086 86.2041 3.90086 86.5441 4.56086 86.5441C7.66086 86.5441 5.72086 79.1441 10.3209 79.1441C12.7009 79.1441 14.1209 81.1441 14.1209 84.1641ZM14.1209 73.7809C14.1209 76.4009 12.7809 77.8609 10.2809 77.8609C7.78086 77.8609 6.08086 76.0409 6.08086 73.6209C6.08086 72.8609 6.26086 72.1009 6.58086 71.4009L8.10086 71.8809C7.90086 72.1809 7.54086 72.9209 7.54086 73.6809C7.54086 74.2409 7.80086 75.1809 8.22086 75.7009C8.66086 76.0209 9.46086 76.2209 10.2209 76.2209C11.8009 76.2209 12.6609 75.3009 12.6609 73.7209C12.6609 73.0009 12.4809 72.1609 12.1009 71.5209L13.4009 71.1209C13.9009 71.8609 14.1209 72.9009 14.1209 73.7809ZM13.8809 69.8019L6.32086 69.8019L6.32086 68.4019L7.24086 68.2219C6.44086 67.7019 6.08086 66.9619 6.08086 66.0819C6.08086 65.5619 6.22086 65.1019 6.50086 64.6819L8.12086 65.2019C7.82086 65.6219 7.62086 65.9819 7.62086 66.4619C7.62086 67.1819 8.08086 67.8419 8.64086 68.2019L13.8809 68.2019L13.8809 69.8019ZM14.1209 60.4867C14.1209 63.0067 12.5809 64.2867 10.1009 64.2867C7.76086 64.2867 6.08086 62.8467 6.08086 60.4867C6.08086 57.9867 7.60086 56.6667 10.1009 56.6667C12.4809 56.6667 14.1209 58.1067 14.1209 60.4867ZM10.1009 62.6467C11.4209 62.6467 12.6409 61.9867 12.6409 60.4867C12.6409 59.8067 12.4409 59.0667 12.0809 58.7067C11.6009 58.3467 10.8009 58.3067 10.1009 58.3067C8.76086 58.3067 7.54086 59.0267 7.54086 60.4867C7.54086 61.1667 7.72086 61.8467 8.08086 62.1867C8.56086 62.5667 9.40086 62.6467 10.1009 62.6467ZM13.8809 54.9386L0.880857 54.9386L0.880857 53.3386L13.8809 53.3386L13.8809 54.9386ZM13.8809 51.0909L0.880857 51.0909L0.880857 49.4909L13.8809 49.4909L13.8809 51.0909ZM13.8809 42.9594L1.28086 42.9594L1.28086 38.4594C1.28086 34.3194 3.20086 32.0794 7.38086 32.0794C11.4609 32.0794 13.8809 34.8394 13.8809 38.6994L13.8809 42.9594ZM12.3609 41.2794L12.3609 38.7594C12.3609 36.9194 11.8809 35.8194 11.1809 34.9394C10.3209 34.2194 8.80086 33.7594 7.44086 33.7594C4.52086 33.7594 2.80086 35.2994 2.80086 38.2394L2.80086 41.2794L12.3609 41.2794ZM14.1209 27.0687C14.1209 29.5887 12.5809 30.8687 10.1009 30.8687C7.76086 30.8687 6.08086 29.4287 6.08086 27.0687C6.08086 24.5687 7.60086 23.2487 10.1009 23.2487C12.4809 23.2487 14.1209 24.6887 14.1209 27.0687ZM10.1009 29.2287C11.4209 29.2287 12.6409 28.5687 12.6409 27.0687C12.6409 26.3887 12.4409 25.6487 12.0809 25.2887C11.6009 24.9287 10.8009 24.8887 10.1009 24.8887C8.76086 24.8887 7.54086 25.6087 7.54086 27.0687C7.54086 27.7487 7.72086 28.4287 8.08086 28.7687C8.56086 29.1487 9.40086 29.2287 10.1009 29.2287ZM13.8809 19.8155L6.32086 22.7155L6.32086 20.9555L12.0409 18.9555L6.32086 16.9555L6.32086 15.3355L12.0409 13.3155L6.32086 11.3355L6.32086 9.61547L13.8809 12.5155L13.8809 14.1955L8.32086 16.1755L13.8809 18.1555L13.8809 19.8155ZM9.54086 3.17656C8.46086 3.17656 7.52086 3.57656 7.52086 4.69656C7.52086 5.47656 8.06086 6.27656 8.60086 6.75656L13.8809 6.75656L13.8809 8.35656L6.32086 8.35656L6.32086 6.95656L7.20086 6.77656C6.46086 6.17656 6.08086 5.37656 6.08086 4.39656C6.08086 2.41656 7.38086 1.57656 9.26086 1.57656L13.8809 1.57656L13.8809 3.17656L9.54086 3.17656Z" fill="#E7E7E7"/>
<path d="M7.38086 103.164L7.38086 126.5" stroke="#E7E7E7" stroke-width="0.5"/>
</svg>
