<svg width="17" height="83" viewBox="0 0 17 83" fill="none" xmlns="http://www.w3.org/2000/svg">
<g filter="url(#filter0_d_560_15975)">
<path d="M15.1209 38C15.1209 39.6 14.7209 41.1 13.9009 42.32L12.3009 41.82C13.2209 40.64 13.6009 38.84 13.6009 37.66C13.6009 36.96 13.4809 36.12 13.3409 35.68C13.0209 35.14 12.3609 34.68 11.5809 34.68C8.44086 34.68 10.3609 42.06 5.80086 42.06C3.48086 42.06 2.04086 40.12 2.04086 37.4C2.04086 36.2 2.32086 34.62 3.28086 33.54L4.80086 34.02C3.98086 35.08 3.56086 36.54 3.56086 37.88C3.56086 38.76 3.76086 39.3 3.98086 39.72C4.30086 40.04 4.90086 40.38 5.56086 40.38C8.66086 40.38 6.72086 32.98 11.3209 32.98C13.7009 32.98 15.1209 34.98 15.1209 38ZM10.5409 25.9969C9.46086 25.9969 8.52086 26.3969 8.52086 27.5969C8.52086 28.3169 9.06086 29.0969 9.60086 29.5769L14.8809 29.5769L14.8809 31.1769L1.88086 31.1769L1.88086 29.5769L8.18086 29.5769C7.44086 28.9769 7.08086 28.1769 7.08086 27.2169C7.08086 25.2369 8.38086 24.3969 10.2609 24.3969L14.8809 24.3969L14.8809 25.9969L10.5409 25.9969ZM14.8809 17.5306L14.1609 17.7106C14.7809 18.2706 15.1209 19.1706 15.1209 20.1506C15.1209 21.7706 14.3609 22.8306 12.6809 22.8306C11.1609 22.8306 10.4009 21.7506 10.4009 19.6306L10.4009 17.7306L10.0009 17.7306C8.96086 17.7306 8.52086 18.2906 8.52086 19.5906C8.52086 20.3306 8.72086 21.2706 8.98086 21.7706L7.66086 22.1906C7.32086 21.4106 7.08086 20.2706 7.08086 19.3706C7.08086 17.1306 8.00086 16.1306 10.1209 16.1306L14.8809 16.1306L14.8809 17.5306ZM12.6809 21.2306C13.4009 21.2306 13.7209 20.7906 13.7209 19.8706C13.7209 19.0106 13.3409 18.1106 12.8209 17.7306L11.7409 17.7306L11.7409 19.6306C11.7409 20.3306 11.7809 20.7306 11.8809 21.0506C12.1009 21.1706 12.3809 21.2306 12.6809 21.2306ZM14.8809 14.0089L7.32086 14.0089L7.32086 12.6089L8.24086 12.4289C7.44086 11.9089 7.08086 11.1689 7.08086 10.2889C7.08086 9.76891 7.22086 9.30891 7.50086 8.88891L9.12086 9.40891C8.82086 9.82891 8.62086 10.1889 8.62086 10.6689C8.62086 11.3889 9.08086 12.0489 9.64086 12.4089L14.8809 12.4089L14.8809 14.0089ZM15.1209 4.57375C15.1209 6.87375 13.8809 8.49375 11.2409 8.49375C8.82086 8.49375 7.08086 7.11375 7.08086 4.77375C7.08086 1.89375 9.18086 1.01375 11.7409 1.25375L11.7409 6.89375C12.8209 6.87375 13.6809 6.03375 13.6809 4.39375C13.6809 3.67375 13.5209 2.95375 13.0209 2.11375L14.3809 1.71375C14.8809 2.53375 15.1209 3.55375 15.1209 4.57375ZM10.3409 6.87375L10.3409 2.79375C9.14086 2.87375 8.52086 3.65375 8.52086 4.77375C8.52086 5.59375 8.82086 6.15375 9.14086 6.47375C9.56086 6.73375 9.92086 6.85375 10.3409 6.87375Z" fill="#FFFEF5"/>
<path d="M8.38086 57L8.38086 80.3357" stroke="#FFFEF5" stroke-width="0.5"/>
</g>
<defs>
<filter id="filter0_d_560_15975" x="0.880859" y="0" width="15.2402" height="82.3357" filterUnits="userSpaceOnUse" color-interpolation-filters="sRGB">
<feFlood flood-opacity="0" result="BackgroundImageFix"/>
<feColorMatrix in="SourceAlpha" type="matrix" values="0 0 0 0 0 0 0 0 0 0 0 0 0 0 0 0 0 0 127 0" result="hardAlpha"/>
<feOffset dy="1"/>
<feGaussianBlur stdDeviation="0.5"/>
<feComposite in2="hardAlpha" operator="out"/>
<feColorMatrix type="matrix" values="0 0 0 0 0 0 0 0 0 0 0 0 0 0 0 0 0 0 0.6 0"/>
<feBlend mode="normal" in2="BackgroundImageFix" result="effect1_dropShadow_560_15975"/>
<feBlend mode="normal" in="SourceGraphic" in2="effect1_dropShadow_560_15975" result="shape"/>
</filter>
</defs>
</svg>
