<svg width="15" height="14" viewBox="0 0 15 14" fill="none" xmlns="http://www.w3.org/2000/svg">
<path d="M7.47021 0L8.02376 4.36601L10.3053 0.602607L9.03513 4.8163L12.6501 2.30623L9.77591 5.63902L14.0993 4.8163L10.118 6.69192L14.4022 7.6988L10.0023 7.79294L13.5066 10.4553L9.44875 8.7517L11.5672 12.6092L8.5531 9.40242L8.9194 13.7881L7.47021 9.6326L6.02103 13.7881L6.38733 9.40242L3.37323 12.6092L5.49168 8.7517L1.43383 10.4553L4.93814 7.79294L0.538184 7.6988L4.82241 6.69192L0.841146 4.8163L5.16452 5.63902L2.29034 2.30623L5.9053 4.8163L4.63517 0.602607L6.91667 4.36601L7.47021 0Z" fill="white"/>
</svg>
