<svg width="63" height="64" viewBox="0 0 63 64" fill="none" xmlns="http://www.w3.org/2000/svg">
<path d="M31.5 1.06088e-06C14.103 -4.60012e-07 4.34256e-06 14.3269 2.79753e-06 32C1.2525e-06 49.6731 14.103 64 31.5 64C48.897 64 63 49.6731 63 32C63 14.3269 48.897 2.58177e-06 31.5 1.06088e-06Z" fill="#D1F2EC"/>
<path d="M31.5 9.00001C19.0736 9 9 19.2975 9 32C9 44.7025 19.0736 55 31.5 55C43.9264 55 54 44.7026 54 32C54 19.2975 43.9264 9.00001 31.5 9.00001Z" fill="#0E8771"/>
<path d="M39 26L28 37L23 32" stroke="white" stroke-width="3" stroke-linecap="round" stroke-linejoin="round"/>
</svg>
