<svg width="77" height="78" viewBox="0 0 77 78" fill="none" xmlns="http://www.w3.org/2000/svg">
<path d="M38.5 4.26362e-06C17.237 2.40475e-06 -2.3369e-06 17.4609 -4.21991e-06 39C-6.10291e-06 60.5391 17.237 78 38.5 78C59.763 78 77 60.5391 77 39C77 17.4609 59.763 6.12248e-06 38.5 4.26362e-06Z" fill="#F2EED1"/>
<path d="M38.5 11C23.3122 11 11 23.536 11 39C11 54.464 23.3122 67 38.5 67C53.6878 67 66 54.464 66 39C66 23.536 53.6878 11 38.5 11Z" fill="#E4DFB0"/>
<path d="M38.2513 45.1391C37.7745 45.1391 37.3889 44.7535 37.3889 44.2767C37.3889 43.1487 37.5489 42.1743 37.8673 41.3551C38.1009 40.7375 38.4801 40.1151 39.0017 39.4863C39.3857 39.0287 40.0737 38.3599 41.0689 37.4831C42.0641 36.6047 42.7105 35.9055 43.0097 35.3839C43.3089 34.8623 43.4561 34.2927 43.4561 33.6751C43.4561 32.5567 43.0193 31.5759 42.1473 30.7295C41.2753 29.8831 40.2049 29.4607 38.9377 29.4607C37.7137 29.4607 36.6913 29.8447 35.8721 30.6111C35.2737 31.1711 34.8241 31.9615 34.5265 32.9823C34.3217 33.6831 33.6385 34.1311 32.9137 34.0447C31.9953 33.9359 31.3905 33.0271 31.6529 32.1391C32.0561 30.7743 32.7313 29.6751 33.6769 28.8399C34.9905 27.6767 36.7281 27.0959 38.8897 27.0959C41.1777 27.0959 43.0033 27.7183 44.3665 28.9647C45.7297 30.2111 46.4097 31.7167 46.4097 33.4831C46.4097 34.5055 46.1697 35.4479 45.6913 36.3087C45.2129 37.1711 44.2753 38.2191 42.8817 39.4543C41.9457 40.2847 41.3329 40.8975 41.0449 41.2911C40.7569 41.6847 40.5441 42.1375 40.4065 42.6479C40.3041 43.0271 40.2337 43.5839 40.1953 44.3151C40.1713 44.7759 39.7889 45.1375 39.3281 45.1375H38.2513V45.1391ZM37.2289 49.2671C37.2289 48.3631 37.9617 47.6303 38.8657 47.6303C39.7697 47.6303 40.5025 48.3631 40.5025 49.2671C40.5025 50.1711 39.7697 50.9039 38.8657 50.9039C37.9617 50.9039 37.2289 50.1711 37.2289 49.2671Z" fill="#877B0E"/>
</svg>
